<svg width="494" height="496" viewBox="0 0 494 496" fill="none" xmlns="http://www.w3.org/2000/svg">
<g id="drone_delivery_SVG 1" clip-path="url(#clip0)">
<g id="&#208;&#161;&#208;&#187;&#208;&#190;&#208;&#185; 2">
<g id="&#208;&#161;&#208;&#187;&#208;&#190;&#208;&#185; 1">
<path id="sombra-drone" d="M475.41 337.33C475.41 337.42 475.41 337.51 475.41 337.61C475.41 337.71 475.41 337.81 475.41 337.91C475.406 337.943 475.406 337.977 475.41 338.01C475.415 337.907 475.415 337.803 475.41 337.7C475.415 337.637 475.415 337.573 475.41 337.51V337.45C475.415 337.36 475.415 337.27 475.41 337.18V331.18C475.41 331.28 475.41 331.37 475.41 331.47C475.41 331.57 475.41 331.67 475.41 331.77C475.396 331.855 475.376 331.938 475.35 332.02C475.35 332.07 475.35 332.11 475.35 332.16C475.88 330.41 474.99 328.54 472.65 327.16C470.526 326.081 468.177 325.518 465.795 325.518C463.413 325.518 461.064 326.081 458.94 327.16C457.06 328.25 456.13 329.68 456.13 331.11V332.11L438.1 333C436.476 333.021 434.865 332.704 433.37 332.07L423.45 327.66C419.112 325.748 414.879 323.605 410.77 321.24C406.916 319.026 403.199 316.582 399.64 313.92L392 308.13C391.522 307.783 391.118 307.344 390.81 306.84L392.19 294.92C392.195 294.83 392.195 294.74 392.19 294.65V294.57V289.3C392.19 289.42 392.19 289.54 392.19 289.65C392.19 289.76 392.19 289.59 392.19 289.56C392.19 289.53 392.19 289.47 392.19 289.42V283.08C392.195 283.173 392.195 283.267 392.19 283.36C392.19 283.46 392.19 283.57 392.19 283.67C392.19 283.77 392.19 283.83 392.13 283.92V284.05C392.67 282.3 391.77 280.44 389.43 279.05C387.307 277.968 384.958 277.404 382.575 277.404C380.192 277.404 377.843 277.968 375.72 279.05C373.85 280.14 372.91 281.57 372.92 283.05V289.29C372.92 289.29 372.92 289.35 372.92 289.38V294.59C372.926 294.802 372.953 295.013 373 295.22L374.39 307C374.097 307.453 373.724 307.85 373.29 308.17L365.71 313.91C358.372 319.376 350.434 323.986 342.05 327.65L332.18 332C330.688 332.635 329.081 332.951 327.46 332.93L309.59 332.11V331.06C309.595 331.157 309.595 331.253 309.59 331.35C309.59 331.45 309.59 331.55 309.59 331.65L309.53 331.9C309.526 331.947 309.526 331.993 309.53 332.04C310.06 330.29 309.17 328.42 306.83 327.04C304.707 325.958 302.358 325.394 299.975 325.394C297.592 325.394 295.243 325.958 293.12 327.04C291.24 328.13 290.31 329.56 290.31 331.04V337.28V346.42C290.305 346.48 290.305 346.54 290.31 346.6V349.09C290.31 350.54 291.31 351.99 293.17 353.09C293.622 353.343 294.089 353.567 294.57 353.76H294.65L294.89 353.85C295.17 353.95 295.45 354.05 295.75 354.14L296.23 354.25L296.51 354.32C296.592 354.346 296.675 354.366 296.76 354.38C297.07 354.45 297.39 354.5 297.76 354.55H298.1H298.34H298.7L299.65 354.6H299.95C300.037 354.605 300.123 354.605 300.21 354.6C300.35 354.6 300.5 354.6 300.64 354.6C301 354.6 301.36 354.6 301.72 354.53H301.84H302.13C302.4 354.53 302.68 354.47 302.95 354.42C303.22 354.37 303.18 354.36 303.3 354.33C303.63 354.26 303.95 354.18 304.3 354.09L304.82 353.96C304.95 353.96 305.08 353.86 305.21 353.81L305.59 353.67C306.054 353.487 306.505 353.273 306.94 353.03L307.06 352.96C307.15 352.91 307.22 352.85 307.31 352.79L307.66 352.56L307.93 352.35L308.23 352.1H308.29L308.39 351.99L308.61 351.75L327.66 351.07C328.064 351.07 328.468 351.09 328.87 351.13H329.04C329.38 351.13 329.72 351.21 330.04 351.27H330.18C330.53 351.34 330.86 351.43 331.18 351.52L331.55 351.65C331.83 351.743 332.1 351.843 332.36 351.95L342.3 356.36C346.635 358.278 350.868 360.421 354.98 362.78C358.797 365.018 362.477 367.483 366 370.16L373.64 375.89C373.934 376.109 374.203 376.36 374.44 376.64C373.825 377.315 373.47 378.187 373.44 379.1V379.1V385.35C373.44 385.42 373.44 385.48 373.44 385.54V388.54V394.8C373.44 396.25 374.39 397.7 376.3 398.8C376.748 399.061 377.216 399.285 377.7 399.47H377.78L378.02 399.55C378.3 399.65 378.58 399.76 378.87 399.84L379.36 399.96L379.64 400.03L379.88 400.09C380.2 400.15 380.52 400.21 380.88 400.25H381.23H381.47H381.83C382.14 400.25 382.46 400.25 382.83 400.3H383.83C384.19 400.3 384.55 400.3 384.91 400.22H385.03H385.31C385.59 400.22 385.87 400.15 386.14 400.1L386.49 400.02C386.82 399.95 387.14 399.86 387.49 399.77C387.84 399.68 387.84 399.7 388.01 399.65L388.4 399.5L388.78 399.35C389.246 399.171 389.697 398.957 390.13 398.71L390.25 398.64L390.49 398.48L390.85 398.24L391.12 398.03L391.42 397.78C391.42 397.78 391.42 397.78 391.48 397.73L391.58 397.62C391.724 397.481 391.861 397.334 391.99 397.18L392.08 397.08L392.14 396.99C392.23 396.87 392.3 396.76 392.37 396.65L392.47 396.51V396.43C392.525 396.334 392.572 396.234 392.61 396.13L392.7 395.95C392.7 395.95 392.7 395.95 392.7 395.89C392.736 395.795 392.766 395.698 392.79 395.6C392.79 395.54 392.79 395.47 392.84 395.41C392.844 395.394 392.844 395.376 392.84 395.36C392.84 395.26 392.84 395.15 392.84 395.05V394.85V388.51C392.845 388.587 392.845 388.663 392.84 388.74V379.12C392.845 379.217 392.845 379.313 392.84 379.41C392.84 379.51 392.84 379.61 392.84 379.71C392.825 379.794 392.805 379.878 392.78 379.96C392.78 379.96 392.78 380.05 392.78 380.1C392.952 379.479 392.955 378.823 392.788 378.2C392.621 377.578 392.29 377.012 391.83 376.56V376.51L391.94 376.39C392.116 376.205 392.307 376.035 392.51 375.88L400.09 370.14C400.88 369.54 401.69 368.94 402.51 368.36L403.32 367.8L405.04 366.62L406.04 365.98L407.71 364.91L408.71 364.28C409.16 364 409.63 363.73 410.09 363.46C410.74 363.07 411.4 362.68 412.09 362.3L413.39 361.57L415.47 360.45L416.76 359.77C417.53 359.37 418.31 358.98 419.1 358.59L420.22 358.04C421.387 357.48 422.577 356.93 423.79 356.39L433.67 351.98C434 351.84 434.34 351.71 434.67 351.6C435.106 351.462 435.55 351.352 436 351.27C436.35 351.2 436.72 351.15 437.09 351.11H437.14C437.54 351.07 437.95 351.05 438.37 351.05L457.62 351.73C458.064 352.167 458.561 352.547 459.1 352.86C459.547 353.115 460.012 353.339 460.49 353.53H460.57L460.81 353.61C461.091 353.723 461.378 353.82 461.67 353.9L462.15 354.02L462.43 354.09L462.68 354.15C463 354.22 463.32 354.27 463.68 354.32H464.03H464.27H464.62C464.94 354.32 465.273 354.34 465.62 354.38H466.62C466.98 354.38 467.34 354.38 467.69 354.31H467.81H468.1C468.38 354.31 468.66 354.25 468.93 354.2C469.2 354.15 469.16 354.13 469.28 354.11C469.61 354.04 469.93 353.96 470.28 353.87L470.79 353.74C470.93 353.74 471.05 353.64 471.18 353.59L471.56 353.45C472.024 353.267 472.475 353.053 472.91 352.81L473.03 352.74L473.28 352.57L473.63 352.34C473.724 352.272 473.814 352.199 473.9 352.12L474.2 351.88L474.26 351.83C474.291 351.791 474.324 351.754 474.36 351.72C474.505 351.581 474.641 351.434 474.77 351.28L474.86 351.18C474.86 351.18 474.86 351.11 474.93 351.08C475.012 350.971 475.089 350.857 475.16 350.74C475.193 350.696 475.224 350.649 475.25 350.6C475.25 350.6 475.25 350.55 475.25 350.53C475.25 350.51 475.34 350.33 475.39 350.22C475.44 350.11 475.45 350.11 475.47 350.05C475.49 349.99 475.47 350.05 475.47 349.99C475.47 349.93 475.53 349.8 475.55 349.7L475.61 349.5V349.45C475.61 349.35 475.61 349.25 475.61 349.15C475.61 349.05 475.61 349.01 475.61 348.95V348.86V342.6L475.41 337.33Z" fill="#F4F4F4"/>
<path id="Vector" d="M87.52 444.54C109.62 457.3 112.06 476.66 92.95 487.76C73.84 498.86 40.4 497.52 18.31 484.76C-3.78 472 -6.23 452.65 12.9 441.54C32.03 430.43 65.41 431.78 87.52 444.54Z" fill="#F4F4F4"/>
<path id="Vector_2" d="M71.9 238.42C77.2158 236.114 82.8955 234.76 88.68 234.42C89.79 234.42 91.26 234.06 91.74 234.06C92.2621 234.131 92.7729 234.269 93.26 234.47L74 245.1L71.9 238.42Z" fill="#FFCEA9"/>
<path id="Vector_3" d="M95.66 235.83L129.88 255.59L109.21 267.59L75 247.84L95.66 235.83ZM115.45 253.6C113.94 252.826 112.267 252.422 110.57 252.422C108.873 252.422 107.2 252.826 105.69 253.6C103 255.16 103.02 257.69 105.69 259.25C107.2 260.019 108.87 260.42 110.565 260.42C112.26 260.42 113.93 260.019 115.44 259.25C118.13 257.69 118.11 255.15 115.44 253.6H115.45ZM99.17 249.84C101.85 248.27 101.84 245.75 99.17 244.18C97.6583 243.411 95.9862 243.01 94.29 243.01C92.5938 243.01 90.9217 243.411 89.41 244.18C86.72 245.75 86.74 248.27 89.41 249.84C90.9199 250.609 92.5904 251.01 94.285 251.01C95.9796 251.01 97.6501 250.609 99.16 249.84H99.17ZM109.49 266.44L110.75 265.7L96.57 257.51L95.31 258.25L109.49 266.44ZM91.18 255.86L92.45 255.12L78.26 246.93L77 247.67L91.18 255.86ZM124.33 257.09L123.26 256.46L110.62 263.81L111.7 264.43L124.33 257.09V257.09ZM93.1 239.09L80.46 246.43L81.54 247.06L94.18 239.71L93.1 239.09ZM92.58 257.49C92.9856 257.697 93.4346 257.805 93.89 257.805C94.3454 257.805 94.7944 257.697 95.2 257.49C95.3588 257.435 95.4965 257.331 95.594 257.194C95.6914 257.057 95.7438 256.893 95.7438 256.725C95.7438 256.557 95.6914 256.393 95.594 256.256C95.4965 256.119 95.3588 256.015 95.2 255.96C94.7904 255.76 94.3407 255.656 93.885 255.656C93.4293 255.656 92.9796 255.76 92.57 255.96C92.4112 256.015 92.2735 256.119 92.176 256.256C92.0786 256.393 92.0262 256.557 92.0262 256.725C92.0262 256.893 92.0786 257.057 92.176 257.194C92.2735 257.331 92.4112 257.435 92.57 257.49H92.58ZM109.4 244.58L107.18 245.88L109.42 247.17L111.64 245.88L109.4 244.58ZM106.25 242.77L104 244L106.24 245.29L108.5 244L106.26 242.71L106.25 242.77ZM112.56 246.34L110.34 247.63L112.57 248.92L114.8 247.63L112.56 246.34V246.34ZM125.15 253.61L122.92 254.9L125.16 256.19L127.38 254.9L125.15 253.61V253.61ZM103.15 240.89L100.93 242.18L103.16 243.47L105.38 242.18L103.15 240.89ZM107.15 250.25C107.285 250.205 107.403 250.118 107.486 250.002C107.57 249.887 107.615 249.748 107.615 249.605C107.615 249.462 107.57 249.323 107.486 249.208C107.403 249.092 107.285 249.005 107.15 248.96C106.805 248.783 106.423 248.69 106.035 248.69C105.647 248.69 105.265 248.783 104.92 248.96C104.785 249.005 104.667 249.092 104.584 249.208C104.5 249.323 104.455 249.462 104.455 249.605C104.455 249.748 104.5 249.887 104.584 250.002C104.667 250.118 104.785 250.205 104.92 250.25C105.265 250.427 105.647 250.52 106.035 250.52C106.423 250.52 106.805 250.427 107.15 250.25V250.25ZM101.93 252C102.275 252.177 102.657 252.27 103.045 252.27C103.433 252.27 103.815 252.177 104.16 252C104.295 251.955 104.413 251.868 104.496 251.752C104.58 251.637 104.625 251.498 104.625 251.355C104.625 251.212 104.58 251.073 104.496 250.958C104.413 250.842 104.295 250.755 104.16 250.71C103.817 250.533 103.436 250.44 103.05 250.44C102.664 250.44 102.283 250.533 101.94 250.71C101.805 250.755 101.687 250.842 101.604 250.958C101.52 251.073 101.475 251.212 101.475 251.355C101.475 251.498 101.52 251.637 101.604 251.752C101.687 251.868 101.805 251.955 101.94 252H101.93ZM96.83 237.27L94.61 238.56L96.85 239.85L99.07 238.56L96.83 237.27ZM122 251.81L119.78 253.11L122.01 254.39L124.23 253.1L122 251.81ZM100 239.1L97.78 240.39L100.01 241.68L102.23 240.38L100 239.1ZM118.85 250L116.63 251.29L118.86 252.58L121.09 251.29L118.85 250ZM115.71 248.18L113.48 249.47L115.72 250.76L117.94 249.47L115.71 248.18V248.18ZM101.08 253.8C101.215 253.755 101.333 253.668 101.416 253.552C101.5 253.437 101.545 253.298 101.545 253.155C101.545 253.012 101.5 252.873 101.416 252.758C101.333 252.642 101.215 252.555 101.08 252.51C100.735 252.338 100.355 252.248 99.97 252.248C99.5846 252.248 99.2046 252.338 98.86 252.51C98.7247 252.555 98.607 252.642 98.5236 252.758C98.4402 252.873 98.3953 253.012 98.3953 253.155C98.3953 253.298 98.4402 253.437 98.5236 253.552C98.607 253.668 98.7247 253.755 98.86 253.8C99.2063 253.973 99.588 254.062 99.975 254.062C100.362 254.062 100.744 253.973 101.09 253.8" fill="white"/>
<path id="Vector_4" d="M71.91 246.77C71.9438 247.134 72.0736 247.482 72.2862 247.779C72.4988 248.076 72.7866 248.311 73.12 248.46L106.71 267.85C106.91 267.964 107.117 268.064 107.33 268.15H107.43L108 268.33H108.12C108.34 268.383 108.56 268.423 108.78 268.45H108.88C109.11 268.45 109.34 268.45 109.57 268.45H109.68C109.91 268.45 110.14 268.45 110.37 268.45H110.49L110.99 268.37L111.4 268.26L111.79 268.15L111.94 268.09C112.141 268.013 112.335 267.919 112.52 267.81L130.52 257.34C130.692 257.245 130.853 257.131 131 257V257C131.123 256.889 131.234 256.765 131.33 256.63V256.56C131.411 256.443 131.475 256.315 131.52 256.18V256.13C131.563 255.994 131.586 255.853 131.59 255.71V257.36C131.594 257.437 131.594 257.513 131.59 257.59C131.594 257.64 131.594 257.69 131.59 257.74C131.59 257.74 131.59 257.74 131.59 257.79C131.557 257.872 131.521 257.952 131.48 258.03C131.457 258.069 131.43 258.106 131.4 258.14V258.21L131.35 258.27C131.278 258.373 131.194 258.467 131.1 258.55V258.55C130.965 258.672 130.818 258.78 130.66 258.87H130.61L112.61 269.34C112.428 269.446 112.237 269.536 112.04 269.61C111.988 269.635 111.935 269.655 111.88 269.67L111.71 269.74L111.5 269.79C111.363 269.834 111.222 269.867 111.08 269.89H110.94L110.58 269.94H110.46H110.01C109.947 269.945 109.883 269.945 109.82 269.94H109.59H109.18H108.93H108.78L108.37 269.87H108.27H108.15H107.94L107.58 269.75H107.48C107.273 269.673 107.072 269.579 106.88 269.47L73.12 250.07C72.784 249.921 72.4938 249.684 72.2794 249.385C72.0649 249.087 71.934 248.736 71.9 248.37L71.91 246.77Z" fill="#151515"/>
<path id="Vector_5" d="M122.92 254.92L125.16 256.21L127.38 254.92L125.15 253.63L122.92 254.92Z" fill="#232323"/>
<path id="Vector_6" d="M122.01 254.4L124.23 253.1L122 251.81L119.78 253.11L122.01 254.4Z" fill="#232323"/>
<path id="Vector_7" d="M118.87 252.57L121.08 251.28L118.86 250L116.63 251.28L118.87 252.57Z" fill="#232323"/>
<path id="Vector_8" d="M115.72 250.76L117.94 249.47L115.7 248.18L113.48 249.47L115.72 250.76Z" fill="#232323"/>
<path id="Vector_9" d="M110.62 263.8L111.7 264.43L124.33 257.08L123.25 256.46L110.62 263.8Z" fill="#232323"/>
<path id="Vector_10" d="M112.58 248.94L114.8 247.66L112.56 246.36L110.33 247.66L112.58 248.94Z" fill="#232323"/>
<path id="Vector_11" d="M109.43 247.13L111.65 245.84L109.41 244.55L107.19 245.84L109.43 247.13Z" fill="#232323"/>
<path id="Vector_12" d="M105.69 253.59C103 255.16 103.02 257.68 105.69 259.25C107.202 260.019 108.874 260.42 110.57 260.42C112.266 260.42 113.938 260.019 115.45 259.25C118.13 257.68 118.12 255.16 115.45 253.59C113.938 252.821 112.266 252.42 110.57 252.42C108.874 252.42 107.202 252.821 105.69 253.59V253.59Z" fill="#232323"/>
<path id="Vector_13" d="M107.15 250.27C107.285 250.225 107.403 250.138 107.486 250.022C107.57 249.907 107.615 249.768 107.615 249.625C107.615 249.482 107.57 249.343 107.486 249.228C107.403 249.112 107.285 249.025 107.15 248.98C106.807 248.803 106.426 248.71 106.04 248.71C105.654 248.71 105.273 248.803 104.93 248.98C104.31 249.34 104.31 249.92 104.93 250.27C105.274 250.446 105.654 250.537 106.04 250.537C106.426 250.537 106.806 250.446 107.15 250.27V250.27Z" fill="#232323"/>
<path id="Vector_14" d="M106.28 245.31L108.5 244.02L106.26 242.72L104.04 244.02L106.28 245.31Z" fill="#232323"/>
<path id="Vector_15" d="M104.16 252C104.295 251.955 104.413 251.868 104.496 251.752C104.58 251.637 104.625 251.498 104.625 251.355C104.625 251.212 104.58 251.073 104.496 250.958C104.413 250.842 104.295 250.755 104.16 250.71C103.815 250.533 103.433 250.44 103.045 250.44C102.657 250.44 102.275 250.533 101.93 250.71C101.32 251.06 101.32 251.64 101.93 252C102.276 252.173 102.658 252.262 103.045 252.262C103.432 252.262 103.814 252.173 104.16 252V252Z" fill="#232323"/>
<path id="Vector_16" d="M103.13 243.49L105.35 242.2L103.12 240.91L100.9 242.21L103.13 243.49Z" fill="#232323"/>
<path id="Vector_17" d="M101.07 252.51C100.727 252.333 100.346 252.24 99.96 252.24C99.5738 252.24 99.1932 252.333 98.85 252.51C98.7147 252.555 98.597 252.642 98.5136 252.758C98.4302 252.873 98.3853 253.012 98.3853 253.155C98.3853 253.298 98.4302 253.437 98.5136 253.552C98.597 253.668 98.7147 253.755 98.85 253.8C99.1963 253.973 99.578 254.062 99.965 254.062C100.352 254.062 100.734 253.973 101.08 253.8C101.215 253.754 101.332 253.666 101.415 253.55C101.497 253.433 101.541 253.294 101.54 253.151C101.539 253.009 101.493 252.87 101.408 252.755C101.324 252.64 101.206 252.554 101.07 252.51Z" fill="#232323"/>
<path id="Vector_18" d="M99.98 241.67L102.21 240.38L99.97 239.1L97.75 240.38L99.98 241.67Z" fill="#232323"/>
<path id="Vector_19" d="M96.59 257.51L95.33 258.25L109.51 266.44L110.77 265.7L96.59 257.51Z" fill="#232323"/>
<path id="Vector_20" d="M96.82 237.28L94.6 238.57L96.84 239.86L99.06 238.57L96.82 237.28Z" fill="#232323"/>
<path id="Vector_21" d="M92.58 257.45C92.9874 257.657 93.4379 257.765 93.895 257.765C94.352 257.765 94.8026 257.657 95.21 257.45C95.3701 257.397 95.5094 257.296 95.6082 257.159C95.707 257.023 95.7602 256.858 95.7602 256.69C95.7602 256.522 95.707 256.357 95.6082 256.221C95.5094 256.084 95.3701 255.983 95.21 255.93C94.8026 255.723 94.352 255.615 93.895 255.615C93.4379 255.615 92.9874 255.723 92.58 255.93C91.85 256.34 91.85 257 92.58 257.45Z" fill="#232323"/>
<path id="Vector_22" d="M99.15 244.18C97.6369 243.415 95.9653 243.017 94.27 243.017C92.5747 243.017 90.9031 243.415 89.39 244.18C86.7 245.75 86.72 248.27 89.39 249.84C90.8999 250.609 92.5705 251.01 94.265 251.01C95.9596 251.01 97.6301 250.609 99.14 249.84C101.87 248.27 101.85 245.74 99.15 244.18Z" fill="#232323"/>
<path id="Vector_23" d="M81.54 247.02L94.17 239.67L93.09 239.05L80.46 246.39L81.54 247.02Z" fill="#232323"/>
<path id="Vector_24" d="M92.44 255.12L78.26 246.93L77 247.67L91.18 255.85L92.44 255.12Z" fill="#232323"/>
<path id="Vector_25" d="M73.12 248.46L106.7 267.85C107.602 268.308 108.599 268.547 109.61 268.547C110.621 268.547 111.618 268.308 112.52 267.85L130.52 257.39C132.12 256.45 132.12 254.95 130.52 254.01L96.93 234.62C96.0288 234.166 95.0339 233.93 94.025 233.93C93.0161 233.93 92.0212 234.166 91.12 234.62L73.12 245.1C71.5 246 71.51 247.53 73.12 248.46ZM74.99 247.84L95.66 235.84L129.89 255.6L109.22 267.6L74.99 247.84Z" fill="#232323"/>
<path id="Vector_26" d="M91.8 244.87L90.58 245.58L90.14 244.62L91.8 244.87Z" fill="#9A9A9A"/>
<path id="Vector_27" d="M114.71 254.03L114.27 254.99L113.05 254.28L114.71 254.03Z" fill="#9A9A9A"/>
<path id="Vector_28" d="M114.29 257.86L114.74 258.82L113.07 258.56L114.29 257.86Z" fill="#9A9A9A"/>
<path id="Vector_29" d="M111.48 255.9C111.576 255.944 111.657 256.014 111.714 256.103C111.771 256.192 111.801 256.295 111.801 256.4C111.801 256.505 111.771 256.608 111.714 256.697C111.657 256.786 111.576 256.856 111.48 256.9C111.201 257.041 110.893 257.114 110.58 257.114C110.267 257.114 109.959 257.041 109.68 256.9C109.19 256.61 109.18 256.15 109.68 255.9C109.959 255.759 110.267 255.686 110.58 255.686C110.893 255.686 111.201 255.759 111.48 255.9V255.9Z" fill="#9A9A9A"/>
<path id="Vector_30" d="M90.6 248.44L91.82 249.15L90.16 249.41L90.6 248.44Z" fill="#9A9A9A"/>
<path id="Vector_31" d="M98.41 244.61L97.97 245.58L96.75 244.87L98.41 244.61Z" fill="#9A9A9A"/>
<path id="Vector_32" d="M95.18 246.49C95.2757 246.534 95.3569 246.604 95.4138 246.693C95.4706 246.782 95.5009 246.885 95.5009 246.99C95.5009 247.095 95.4706 247.198 95.4138 247.287C95.3569 247.376 95.2757 247.446 95.18 247.49C94.9021 247.629 94.5957 247.701 94.285 247.701C93.9743 247.701 93.6679 247.629 93.39 247.49C92.9 247.2 92.89 246.74 93.39 246.49C93.6679 246.351 93.9743 246.279 94.285 246.279C94.5957 246.279 94.9021 246.351 95.18 246.49Z" fill="#9A9A9A"/>
<path id="Vector_33" d="M106.9 257.86L108.12 258.56L106.47 258.82L106.9 257.86Z" fill="#9A9A9A"/>
<path id="Vector_34" d="M97.99 248.44L98.44 249.41L96.77 249.15L97.99 248.44Z" fill="#9A9A9A"/>
<path id="Vector_35" d="M104.15 250.72C104.285 250.765 104.403 250.852 104.486 250.968C104.57 251.083 104.615 251.222 104.615 251.365C104.615 251.508 104.57 251.647 104.486 251.762C104.403 251.878 104.285 251.965 104.15 252.01C103.805 252.187 103.423 252.28 103.035 252.28C102.647 252.28 102.265 252.187 101.92 252.01C101.785 251.965 101.667 251.878 101.584 251.762C101.5 251.647 101.455 251.508 101.455 251.365C101.455 251.222 101.5 251.083 101.584 250.968C101.667 250.852 101.785 250.765 101.92 250.72C102.264 250.541 102.647 250.448 103.035 250.448C103.423 250.448 103.806 250.541 104.15 250.72V250.72Z" fill="#232323"/>
<path id="Vector_36" d="M108.5 244.02L106.28 245.31L104.04 244.02L106.26 242.73L108.5 244.02Z" fill="#232323"/>
<path id="Vector_37" d="M102.2 240.38L99.98 241.68L97.75 240.39L99.97 239.09L102.2 240.38Z" fill="#232323"/>
<path id="Vector_38" d="M124.23 253.1L122.01 254.39L119.78 253.1L122 251.81L124.23 253.1Z" fill="#232323"/>
<path id="Vector_39" d="M114.8 247.65L112.57 248.94L110.34 247.65L112.56 246.36L114.8 247.65Z" fill="#232323"/>
<path id="Vector_40" d="M117.94 249.47L115.72 250.76L113.48 249.47L115.71 248.18L117.94 249.47Z" fill="#232323"/>
<path id="Vector_41" d="M121.09 251.29L118.86 252.58L116.63 251.29L118.85 250L121.09 251.29Z" fill="#232323"/>
<path id="Vector_42" d="M105.35 242.2L103.13 243.49L100.9 242.2L103.12 240.91L105.35 242.2Z" fill="#232323"/>
<path id="Vector_43" d="M99.15 244.18C101.85 245.75 101.86 248.27 99.15 249.84C97.6401 250.609 95.9696 251.01 94.275 251.01C92.5804 251.01 90.9099 250.609 89.4 249.84C86.69 248.27 86.67 245.75 89.4 244.18C90.9104 243.412 92.5807 243.012 94.275 243.012C95.9693 243.012 97.6396 243.412 99.15 244.18V244.18ZM93.39 247.53C93.6679 247.669 93.9743 247.741 94.285 247.741C94.5957 247.741 94.9021 247.669 95.18 247.53C95.2757 247.486 95.3569 247.416 95.4137 247.327C95.4706 247.238 95.5009 247.135 95.5009 247.03C95.5009 246.925 95.4706 246.822 95.4137 246.733C95.3569 246.644 95.2757 246.574 95.18 246.53C94.9021 246.391 94.5957 246.319 94.285 246.319C93.9743 246.319 93.6679 246.391 93.39 246.53C92.89 246.82 92.9 247.28 93.39 247.53ZM98.39 244.61L96.73 244.87L97.95 245.58L98.39 244.58V244.61ZM96.75 249.12L98.42 249.38L97.97 248.38L96.75 249.09V249.12ZM90.14 249.35L91.8 249.09L90.58 248.38L90.14 249.38V249.35ZM90.56 245.55L91.78 244.84L90.12 244.59L90.56 245.59" fill="#232323"/>
<path id="Vector_44" d="M107.15 249C107.285 249.045 107.403 249.132 107.486 249.248C107.57 249.363 107.615 249.502 107.615 249.645C107.615 249.788 107.57 249.927 107.486 250.042C107.403 250.158 107.285 250.245 107.15 250.29C106.805 250.467 106.423 250.56 106.035 250.56C105.647 250.56 105.265 250.467 104.92 250.29C104.785 250.245 104.667 250.158 104.584 250.042C104.5 249.927 104.455 249.788 104.455 249.645C104.455 249.502 104.5 249.363 104.584 249.248C104.667 249.132 104.785 249.045 104.92 249C105.265 248.823 105.647 248.73 106.035 248.73C106.423 248.73 106.805 248.823 107.15 249Z" fill="#232323"/>
<path id="Vector_45" d="M115.45 253.6C118.15 255.15 118.17 257.69 115.45 259.25C113.94 260.019 112.27 260.42 110.575 260.42C108.88 260.42 107.21 260.019 105.7 259.25C102.99 257.69 102.97 255.16 105.7 253.6C107.209 252.828 108.88 252.425 110.575 252.425C112.27 252.425 113.941 252.828 115.45 253.6V253.6ZM109.69 256.94C109.969 257.081 110.277 257.154 110.59 257.154C110.903 257.154 111.211 257.081 111.49 256.94C111.586 256.896 111.667 256.826 111.724 256.737C111.781 256.648 111.811 256.545 111.811 256.44C111.811 256.335 111.781 256.232 111.724 256.143C111.667 256.054 111.586 255.984 111.49 255.94C111.212 255.801 110.906 255.729 110.595 255.729C110.284 255.729 109.978 255.801 109.7 255.94C109.2 256.23 109.21 256.69 109.7 256.94H109.69ZM106.88 255L108.1 254.29L106.43 254.03L106.88 255.03V255ZM114.71 254.03L113.05 254.29L114.27 255L114.71 254V254.03ZM113.07 258.54L114.74 258.8L114.29 257.8L113.07 258.5V258.54ZM106.46 258.76L108.12 258.5L106.9 257.8L106.46 258.8" fill="#232323"/>
<path id="Vector_46" d="M124.33 257.09L111.7 264.43L110.62 263.81L123.25 256.46L124.33 257.09Z" fill="#232323"/>
<path id="Vector_47" d="M110.77 265.7L109.51 266.44L95.33 258.25L96.59 257.51L110.77 265.7Z" fill="#232323"/>
<path id="Vector_48" d="M95.2 255.92C95.3588 255.975 95.4965 256.079 95.594 256.216C95.6914 256.353 95.7438 256.517 95.7438 256.685C95.7438 256.853 95.6914 257.017 95.594 257.154C95.4965 257.291 95.3588 257.395 95.2 257.45C94.7944 257.657 94.3454 257.765 93.89 257.765C93.4346 257.765 92.9856 257.657 92.58 257.45C92.4212 257.395 92.2835 257.291 92.186 257.154C92.0886 257.017 92.0362 256.853 92.0362 256.685C92.0362 256.517 92.0886 256.353 92.186 256.216C92.2835 256.079 92.4212 255.975 92.58 255.92C92.9883 255.722 93.4362 255.619 93.89 255.619C94.3438 255.619 94.7917 255.722 95.2 255.92V255.92Z" fill="#232323"/>
<path id="Vector_49" d="M101.528 253.152C101.53 252.649 100.828 252.24 99.9607 252.237C99.0936 252.235 98.3896 252.64 98.3882 253.143C98.3868 253.646 99.0885 254.055 99.9556 254.057C100.823 254.06 101.527 253.654 101.528 253.152Z" fill="#232323"/>
<path id="Vector_50" d="M111.65 245.84L109.43 247.13L107.19 245.84L109.41 244.54L111.65 245.84Z" fill="#232323"/>
<path id="Vector_51" d="M127.38 254.92L125.16 256.21L122.92 254.92L125.14 253.63L127.38 254.92Z" fill="#232323"/>
<path id="Vector_52" d="M99.06 238.57L96.83 239.86L94.6 238.57L96.83 237.28L99.06 238.57Z" fill="#232323"/>
<path id="Vector_53" d="M94.17 239.67L81.54 247.02L80.46 246.39L93.1 239.05L94.17 239.67Z" fill="#232323"/>
<path id="Vector_54" d="M92.45 255.12L91.18 255.86L77 247.67L78.26 246.93L92.45 255.12Z" fill="#232323"/>
<path id="Vector_55" d="M108.1 254.28L106.89 254.99L106.43 254.03L108.1 254.28Z" fill="#9A9A9A"/>
<path id="Vector_56" opacity="0.1" d="M95.66 235.83L129.88 255.59L109.21 267.59L75 247.84L95.66 235.83ZM115.45 253.6C113.94 252.826 112.267 252.422 110.57 252.422C108.873 252.422 107.2 252.826 105.69 253.6C103 255.16 103.02 257.69 105.69 259.25C107.2 260.019 108.87 260.42 110.565 260.42C112.26 260.42 113.93 260.019 115.44 259.25C118.13 257.69 118.11 255.15 115.44 253.6H115.45ZM99.17 249.84C101.85 248.27 101.84 245.75 99.17 244.18C97.6583 243.411 95.9862 243.01 94.29 243.01C92.5938 243.01 90.9217 243.411 89.41 244.18C86.72 245.75 86.74 248.27 89.41 249.84C90.9199 250.609 92.5904 251.01 94.285 251.01C95.9796 251.01 97.6501 250.609 99.16 249.84H99.17ZM109.49 266.44L110.75 265.7L96.57 257.51L95.31 258.25L109.49 266.44ZM91.18 255.86L92.45 255.12L78.26 246.93L77 247.67L91.18 255.86ZM124.33 257.09L123.26 256.46L110.62 263.81L111.7 264.43L124.33 257.09V257.09ZM93.1 239.09L80.46 246.43L81.54 247.06L94.18 239.71L93.1 239.09ZM92.58 257.49C92.9856 257.697 93.4346 257.805 93.89 257.805C94.3454 257.805 94.7944 257.697 95.2 257.49C95.3588 257.435 95.4965 257.331 95.594 257.194C95.6914 257.057 95.7438 256.893 95.7438 256.725C95.7438 256.557 95.6914 256.393 95.594 256.256C95.4965 256.119 95.3588 256.015 95.2 255.96C94.7904 255.76 94.3407 255.656 93.885 255.656C93.4293 255.656 92.9796 255.76 92.57 255.96C92.4112 256.015 92.2735 256.119 92.176 256.256C92.0786 256.393 92.0262 256.557 92.0262 256.725C92.0262 256.893 92.0786 257.057 92.176 257.194C92.2735 257.331 92.4112 257.435 92.57 257.49H92.58ZM109.4 244.58L107.18 245.88L109.42 247.17L111.64 245.88L109.4 244.58ZM106.25 242.77L104 244L106.24 245.29L108.5 244L106.26 242.71L106.25 242.77ZM112.56 246.34L110.34 247.63L112.57 248.92L114.8 247.63L112.56 246.34V246.34ZM125.15 253.61L122.92 254.9L125.16 256.19L127.38 254.9L125.15 253.61V253.61ZM103.15 240.89L100.93 242.18L103.16 243.47L105.38 242.18L103.15 240.89ZM107.15 250.25C107.285 250.205 107.403 250.118 107.486 250.002C107.57 249.887 107.615 249.748 107.615 249.605C107.615 249.462 107.57 249.323 107.486 249.208C107.403 249.092 107.285 249.005 107.15 248.96C106.805 248.783 106.423 248.69 106.035 248.69C105.647 248.69 105.265 248.783 104.92 248.96C104.785 249.005 104.667 249.092 104.584 249.208C104.5 249.323 104.455 249.462 104.455 249.605C104.455 249.748 104.5 249.887 104.584 250.002C104.667 250.118 104.785 250.205 104.92 250.25C105.265 250.427 105.647 250.52 106.035 250.52C106.423 250.52 106.805 250.427 107.15 250.25V250.25ZM101.93 252C102.275 252.177 102.657 252.27 103.045 252.27C103.433 252.27 103.815 252.177 104.16 252C104.295 251.955 104.413 251.868 104.496 251.752C104.58 251.637 104.625 251.498 104.625 251.355C104.625 251.212 104.58 251.073 104.496 250.958C104.413 250.842 104.295 250.755 104.16 250.71C103.817 250.533 103.436 250.44 103.05 250.44C102.664 250.44 102.283 250.533 101.94 250.71C101.805 250.755 101.687 250.842 101.604 250.958C101.52 251.073 101.475 251.212 101.475 251.355C101.475 251.498 101.52 251.637 101.604 251.752C101.687 251.868 101.805 251.955 101.94 252H101.93ZM96.83 237.27L94.61 238.56L96.85 239.85L99.07 238.56L96.83 237.27ZM122 251.81L119.78 253.11L122.01 254.39L124.23 253.1L122 251.81ZM100 239.1L97.78 240.39L100.01 241.68L102.23 240.38L100 239.1ZM118.85 250L116.63 251.29L118.86 252.58L121.09 251.29L118.85 250ZM115.71 248.18L113.48 249.47L115.72 250.76L117.94 249.47L115.71 248.18V248.18ZM101.08 253.8C101.215 253.755 101.333 253.668 101.416 253.552C101.5 253.437 101.545 253.298 101.545 253.155C101.545 253.012 101.5 252.873 101.416 252.758C101.333 252.642 101.215 252.555 101.08 252.51C100.735 252.338 100.355 252.248 99.97 252.248C99.5846 252.248 99.2046 252.338 98.86 252.51C98.7247 252.555 98.607 252.642 98.5236 252.758C98.4402 252.873 98.3953 253.012 98.3953 253.155C98.3953 253.298 98.4402 253.437 98.5236 253.552C98.607 253.668 98.7247 253.755 98.86 253.8C99.2063 253.973 99.588 254.062 99.975 254.062C100.362 254.062 100.744 253.973 101.09 253.8" fill="#3A79B6"/>
<path id="Vector_57" d="M75.31 242.72C75.9867 243.475 76.9212 243.949 77.93 244.05C79.38 244.05 82.93 243.05 83.78 243.05C84.63 243.05 88.38 245.86 89.65 245.86C90.92 245.86 93.85 244.69 93.85 244.24C93.85 243.79 92.07 241.76 85.5 239.74L80 237.87" fill="#FFCEA9"/>
<path id="Vector_58" d="M45.45 468.22C50.1399 469.517 55.1522 468.914 59.4 466.54C62.76 466.64 81 458.83 83.48 465.38C85.66 471.13 77.76 476.44 73.54 477.47C64.32 479.7 57.54 484.29 53.8 485.07C51.05 485.65 47.48 486.07 45.28 483.87C42.65 481.27 42.87 471.65 45.45 468.22Z" fill="#38226D"/>
<path id="Vector_59" d="M53.8 483.48C57.5 482.7 64.32 478.11 73.54 475.87C77.07 475.02 83.17 471.15 83.78 466.54C84.6 471.82 77.47 476.54 73.54 477.47C64.32 479.7 57.54 484.29 53.8 485.07C51.05 485.65 47.48 486.07 45.28 483.87C44.7118 483.24 44.2976 482.487 44.07 481.67C47.27 484.33 51.05 484.06 53.8 483.48Z" fill="#9C73FF"/>
<path id="Vector_60" d="M15.87 454.94C20.5768 456.247 25.6095 455.64 29.87 453.25C33.23 453.35 51.47 445.54 53.95 452.1C56.12 457.84 48.22 463.16 44 464.18C34.79 466.41 28 471.01 24.27 471.79C21.51 472.37 17.94 472.79 15.75 470.58C13.06 468 13.29 458.36 15.87 454.94Z" fill="#38226D"/>
<path id="Vector_61" d="M24.22 470.2C27.92 469.42 34.74 464.82 43.95 462.59C47.49 461.73 53.58 457.86 54.2 453.25C55.02 458.54 47.89 463.25 43.95 464.18C34.74 466.41 27.95 471.01 24.22 471.79C21.46 472.37 17.89 472.79 15.7 470.58C15.1297 469.952 14.7152 469.198 14.49 468.38C17.69 471 21.46 470.78 24.22 470.2Z" fill="#9C73FF"/>
<path id="Vector_62" d="M15.5 405.38C16.2886 398.599 17.6978 391.904 19.71 385.38C19.71 385.38 18.46 368.14 17.83 351.79C17.12 333.24 10.68 316.91 15.76 302.11L73 314.86C73 314.86 69.54 388.81 68.78 397.77C68.3502 404.736 67.4919 411.669 66.21 418.53C63.58 432.89 59.34 467 59.34 467C53.29 470.51 45.34 468.57 45.34 468.57C45.34 468.57 45.78 425.38 46.17 415.04C46.65 402.4 47.03 403.37 47.03 403.37L45.14 372L43.9 356.3C43.9 356.3 42.32 367.78 41.29 378C40.39 386.95 38.22 395 35.81 411.69C33.72 426.14 30.33 455.17 30.33 455.17C24.27 458.69 16.05 455.77 16.05 455.77C16.05 455.77 13.87 417.91 15.5 405.38Z" fill="#8C50FF"/>
<path id="Vector_63" d="M23.86 214.14C28.22 214.35 31.47 215.47 32.01 214.19C32.44 213.19 33.01 207.38 33.01 207.37C32.5 206.11 32.07 204.75 32.07 204.75C27.6174 200.45 24.8146 194.724 24.15 188.57C22.92 176.8 29.28 166.49 41.06 165.26C52.13 164.11 60.27 171.89 62.45 182.57C63.61 187.85 65.95 197.81 62.8 206.49C61.04 211.34 58.8 215.19 56.5 215.94C54.3072 215.874 52.1201 215.681 49.95 215.36V215.36C49.95 215.36 49.36 218.63 48.95 220.72C48.54 222.81 48.71 223.94 52.89 226.51C57.07 229.08 46.57 234.38 39.71 233.86C32.85 233.34 25.13 229.2 23.01 224.76C20.67 219.82 20.87 214 23.86 214.14Z" fill="#FFCEA9"/>
<path id="Vector_64" d="M30.17 214.78C28.96 217.78 32.03 221.48 40.17 224.05C48.31 226.62 49.09 223.31 49.09 223.31C49.09 223.31 61.09 228.78 65 231.51C69.92 234.94 72.09 244.88 72.76 261.66C73.52 281.08 73.59 309.89 72.94 314.86C72.94 314.86 63.76 324.01 52.01 323.05C40.26 322.09 20.49 311.68 15.69 303.65C15.82 286.65 17.81 283.86 15.06 274.05C8.80001 251.59 5.47001 242.4 8.54001 227.48C11.07 215.18 14.61 213.65 19.47 213.77C23.052 213.917 26.6238 214.254 30.17 214.78V214.78Z" fill="#F4F4F4"/>
<path id="Vector_65" d="M62.07 181C62.07 181 72.25 165.53 50.2 162.38C34.3 160.11 24.08 170.32 22.9 181.38C21.77 192 28.3 203 33 207.37C35.29 208.19 40.24 208.66 46.74 205.71C46.9976 202.828 47.0977 199.933 47.04 197.04C47.04 197.04 39.3 180.73 62.07 181Z" fill="#3A2C6D"/>
<path id="Vector_66" d="M93 279.47C83.36 281.9 81.1 275.82 79.83 270.79C76.76 258.61 75.11 247.6 72.83 240.69C70.14 232.53 67.31 231.23 63.35 229.64C58.7 227.78 54.69 231.71 56.24 242.09C58.07 254.37 60.48 262.99 65.07 277.52C66.27 281.32 68.96 288.06 72.99 291.32C77.99 295.32 85.45 295.17 96.78 292.32C101.62 291.11 106.92 288.23 116.06 283.96C118.51 282.82 120.42 282.06 125.13 279.86C129.84 277.66 131.34 257.27 129.9 259.34L119.84 265.11C119.84 264.48 121.18 263.22 121.96 260.57C122.74 257.92 121.96 255.09 120.49 254.78C119.02 254.47 119.3 254.56 118.12 257.05C116.94 259.54 115.12 261.38 113.74 265.05C112.52 268.25 111.97 269.55 109.74 271.87C107.4 274.38 102.15 277.16 93 279.47Z" fill="#FFCEA9"/>
<path id="Vector_67" d="M59.77 228C66.21 227.05 70.77 229.94 73.6 239.7C76.43 249.46 78.43 257.45 78.43 257.45C78.43 257.45 75.35 262.75 67.64 264.62C59.93 266.49 57.17 262.8 57.17 262.8C57.17 262.8 55 252.56 53.71 245.6C52.42 238.64 51.81 229.15 59.77 228Z" fill="#EDEDED"/>
<g id="drone">
<path id="Vector_68" d="M475.41 75.87L456 75.82V82.07C456 83.52 457 84.97 458.87 86.07C459.313 86.3331 459.778 86.5572 460.26 86.74H460.34L460.58 86.82C460.86 86.92 461.14 87.03 461.44 87.11L461.92 87.23L462.2 87.3L462.45 87.36L463.45 87.53H463.8H464.04H464.39C464.71 87.53 465.03 87.53 465.39 87.53H466.39L467.46 87.46H467.58H467.87C468.15 87.46 468.43 87.39 468.7 87.34L469.05 87.26C469.38 87.19 469.7 87.1 470.05 87.01C470.4 86.92 470.4 86.94 470.56 86.89L470.95 86.74L471.33 86.6C471.796 86.4178 472.247 86.2005 472.68 85.95L472.8 85.88L473.05 85.72L473.4 85.48L473.67 85.27C473.774 85.1921 473.875 85.1087 473.97 85.02H474.03L474.13 84.92C474.275 84.7776 474.412 84.6274 474.54 84.47C474.572 84.4426 474.603 84.4125 474.63 84.38C474.651 84.3451 474.674 84.3116 474.7 84.28L474.93 83.94L475.02 83.8C475.02 83.8 475.02 83.75 475.02 83.72L475.16 83.42C475.16 83.36 475.22 83.3 475.24 83.25C475.26 83.2 475.24 83.25 475.24 83.19C475.24 83.13 475.3 82.99 475.32 82.9L475.38 82.7C475.38 82.6 475.38 82.49 475.38 82.39C475.38 82.29 475.38 82.26 475.38 82.19V82.11L475.41 75.87Z" fill="#7040CC"/>
<g id="parte-drone">
<g id="Group">
<path id="Vector_69" d="M392.22 22.5V27.76V22.58C392.226 22.5536 392.226 22.5264 392.22 22.5" fill="black"/>
<path id="Vector_70" d="M392.21 22.58V27.85C392.215 27.9399 392.215 28.0301 392.21 28.12V22.85C392.215 22.7601 392.215 22.6699 392.21 22.58" fill="black"/>
</g>
</g>
<g id="parte-drone_2">
<g id="Group_2">
<path id="Vector_71" d="M372.93 23.15V28.41C372.883 28.1997 372.856 27.9854 372.85 27.77V22.51C372.86 22.7257 372.89 22.9399 372.94 23.15" fill="black"/>
</g>
</g>
<path id="Vector_72" d="M392.2 22.85L392.18 28.12L390.36 43.85L390.37 38.59L392.2 22.85Z" fill="#7040CC"/>
<path id="Vector_73" d="M374.87 38.6L374.85 43.86L372.92 28.41L372.93 23.15L374.87 38.6Z" fill="#7040CC"/>
<path id="Vector_74" d="M475.38 70.81C475.38 70.91 475.38 71.01 475.38 71.11L475.32 71.36C475.32 71.46 475.27 71.55 475.23 71.65C475.207 71.7308 475.173 71.8082 475.13 71.88C475.094 71.9877 475.047 72.0915 474.99 72.19C474.95 72.2622 474.907 72.3323 474.86 72.4C474.79 72.51 474.72 72.63 474.64 72.74L474.48 72.93C474.35 73.08 474.22 73.23 474.07 73.38L473.91 73.53C473.815 73.6187 473.714 73.7022 473.61 73.78L473.34 73.99L472.99 74.22C472.87 74.3 472.75 74.39 472.62 74.46C472.198 74.6998 471.761 74.9103 471.31 75.09L470.92 75.24L470.01 75.52L469.01 75.75C468.67 75.82 468.33 75.89 468.01 75.94H467.62C467.07 76 466.51 76.04 465.95 76.05H465.26C465.03 76.05 464.81 76.05 464.59 76.05L438.17 75.11H437.73L436.94 75.16H436.88C436.55 75.16 436.22 75.24 435.88 75.29H435.79C435.342 75.3669 434.901 75.4772 434.47 75.62H434.42C434.079 75.7212 433.745 75.8448 433.42 75.99L423.53 80.4C422.32 80.93 421.14 81.49 419.97 82.05L418.85 82.6L416.5 83.77L415.22 84.45L413.13 85.58L411.84 86.31L409.84 87.46L409.07 87.91L408.46 88.29L407.46 88.92C406.9 89.27 406.35 89.63 405.8 89.99C405.47 90.2 405.14 90.41 404.8 90.63L403.08 91.81L402.28 92.37C401.46 92.95 400.65 93.54 399.86 94.14L392.33 100C392.18 100.12 392.04 100.23 391.91 100.35L391.75 100.52L391.56 100.73L391.43 100.87C391.34 100.989 391.256 101.112 391.18 101.24C391.169 101.267 391.152 101.291 391.13 101.31C391.13 101.31 391.13 101.31 391.13 101.31C391.046 101.45 390.976 101.597 390.92 101.75C390.92 101.75 390.92 101.86 390.87 101.91V102.04C390.849 102.088 390.832 102.139 390.82 102.19C390.81 102.34 390.81 102.49 390.82 102.64V111.85C390.82 111.624 390.85 111.398 390.91 111.18C390.906 111.137 390.906 111.093 390.91 111.05C390.974 110.83 391.065 110.618 391.18 110.42C391.182 110.397 391.182 110.373 391.18 110.35C391.295 110.169 391.425 109.998 391.57 109.84L391.76 109.63C391.936 109.442 392.126 109.268 392.33 109.11L399.91 103.37C400.7 102.77 401.51 102.18 402.33 101.6L403.14 101.04L404.86 99.86L405.86 99.22C406.41 98.86 406.96 98.5 407.53 98.15L408.53 97.52L409.91 96.69C410.56 96.3 411.22 95.92 411.91 95.54L413.21 94.8L415.29 93.68L416.58 93L418.92 91.83L420.04 91.28C421.21 90.72 422.4 90.16 423.61 89.63L433.49 85.22C433.815 85.0734 434.149 84.9465 434.49 84.84C434.925 84.6972 435.369 84.5869 435.82 84.51C436.18 84.4357 436.544 84.3823 436.91 84.35H436.96C437.36 84.31 437.77 84.29 438.19 84.29L464.61 85.23C464.82 85.23 465.04 85.23 465.28 85.23H466.35C466.71 85.23 467.07 85.23 467.43 85.16H467.63H468.02L468.68 85.07L469.06 84.97L470.06 84.74C470.21 84.74 470.37 84.67 470.52 84.62L470.96 84.46L471.35 84.31C471.804 84.1303 472.245 83.9199 472.67 83.68L472.79 83.61L473.04 83.45L473.39 83.21L473.65 83C473.756 82.9247 473.857 82.8411 473.95 82.75C473.97 82.7541 473.99 82.7541 474.01 82.75L474.11 82.65C474.255 82.5076 474.392 82.3574 474.52 82.2C474.552 82.1726 474.583 82.1425 474.61 82.11C474.637 82.0791 474.66 82.0456 474.68 82.01L474.91 81.67C474.944 81.6257 474.974 81.5789 475 81.53C475 81.53 475 81.48 475 81.46C475.053 81.3595 475.099 81.256 475.14 81.15C475.14 81.15 475.2 81.04 475.22 80.98C475.24 80.92 475.22 80.98 475.22 80.92C475.22 80.86 475.28 80.73 475.3 80.63L475.36 80.43C475.36 80.33 475.36 80.23 475.36 80.13C475.36 80.03 475.36 79.99 475.36 79.93V79.84V70.7C475.367 70.7365 475.374 70.7732 475.38 70.81V70.81Z" fill="#B1B6C3"/>
<path id="Vector_75" d="M373.62 100L366 94.21C362.441 91.5482 358.724 89.1037 354.87 86.89C350.761 84.5254 346.528 82.3823 342.19 80.47L332.25 76.06C332.133 76.0007 332.013 75.9473 331.89 75.9L331.45 75.76L331.07 75.63H330.95C330.681 75.5481 330.407 75.4813 330.13 75.43H330H329.85L329.3 75.33H328.85H328.67H328.56H327.83H327.47L301 76.07C300.73 76.07 300.47 76.07 300.2 76.07C299.57 76.07 298.94 76.07 298.34 75.98H298.1C297.54 75.92 296.99 75.83 296.46 75.72L296.22 75.66C295.74 75.54 295.28 75.4 294.83 75.24L294.59 75.16C294.074 74.9692 293.576 74.735 293.1 74.46C291.19 73.36 290.24 71.91 290.24 70.46V79.6C290.24 81.04 291.19 82.49 293.1 83.6C293.547 83.8551 294.012 84.079 294.49 84.27H294.58L294.83 84.35C295.09 84.45 295.36 84.55 295.64 84.63L296.22 84.77L296.46 84.83H296.64C296.96 84.9 297.28 84.95 297.64 85L298.13 85.05H298.36H298.62C298.96 85.05 299.3 85.05 299.62 85.05H300.56H301L327.54 84.11C327.95 84.11 328.35 84.11 328.75 84.11H328.92C329.26 84.11 329.6 84.2 329.92 84.26H330.06C330.398 84.3225 330.732 84.406 331.06 84.51L331.43 84.64C331.706 84.7235 331.976 84.8236 332.24 84.94L342.18 89.35C346.512 91.3402 350.735 93.5601 354.83 96C358.696 98.2268 362.425 100.681 366 103.35L373.64 109.09C374.105 109.386 374.494 109.788 374.775 110.262C375.057 110.736 375.223 111.27 375.26 111.82V102.68C375.214 102.137 375.041 101.611 374.757 101.146C374.472 100.681 374.083 100.289 373.62 100V100Z" fill="#B1B6C3"/>
<path id="Vector_76" d="M392.75 121.73C392.755 121.823 392.755 121.917 392.75 122.01C392.75 122.11 392.75 122.21 392.75 122.32C392.75 122.43 392.75 122.48 392.69 122.57C392.63 122.66 392.64 122.76 392.61 122.85L392.51 123.09L392.37 123.39L392.24 123.61L392 124C391.95 124.06 391.9 124.13 391.84 124.19C391.714 124.346 391.577 124.493 391.43 124.63L391.27 124.79C391.175 124.879 391.074 124.962 390.97 125.04L390.7 125.25L390.35 125.48C390.23 125.56 390.11 125.65 389.98 125.72C389.547 125.967 389.096 126.181 388.63 126.36L388.25 126.51C387.96 126.61 387.65 126.7 387.35 126.78C387.05 126.86 386.71 126.96 386.35 127.02C385.99 127.08 385.57 127.18 385.17 127.23H384.88C384.34 127.23 383.8 127.31 383.25 127.32H383C382.46 127.32 381.92 127.32 381.39 127.23H381.15C380.62 127.17 380.1 127.08 379.59 126.97L379.31 126.9C378.857 126.786 378.41 126.649 377.97 126.49L377.73 126.41C377.222 126.217 376.73 125.983 376.26 125.71C374.35 124.61 373.39 123.16 373.39 121.71V127.97C373.39 129.42 374.34 130.87 376.25 131.97C376.7 132.227 377.168 132.451 377.65 132.64H377.73L377.97 132.72L378.82 133.01L379.31 133.13L379.59 133.19L379.83 133.25C380.15 133.32 380.47 133.38 380.83 133.42H381.18H381.42H381.78H382.78H383.78C384.14 133.42 384.5 133.42 384.86 133.35H384.98H385.26C385.54 133.35 385.82 133.29 386.09 133.24C386.36 133.19 386.32 133.18 386.44 133.15C386.77 133.08 387.09 133 387.44 132.91C387.79 132.82 387.79 132.84 387.96 132.78L388.35 132.63L388.73 132.49C389.194 132.307 389.645 132.093 390.08 131.85L390.2 131.78L390.44 131.61L390.8 131.38L391.07 131.17L391.37 130.92C391.37 130.92 391.37 130.92 391.43 130.87L391.53 130.76C391.674 130.621 391.811 130.474 391.94 130.32L392.03 130.22L392.09 130.12C392.176 130.013 392.253 129.899 392.32 129.78L392.42 129.64V129.57C392.475 129.474 392.522 129.374 392.56 129.27L392.65 129.09C392.65 129.09 392.65 129.09 392.65 129.03C392.65 128.97 392.71 128.84 392.74 128.74C392.77 128.64 392.74 128.61 392.79 128.55C392.795 128.53 392.795 128.51 392.79 128.49C392.79 128.39 392.79 128.29 392.79 128.19V127.99V128L392.75 121.73Z" fill="#7040CC"/>
<path id="Vector_77" d="M392.74 118.48C392.745 118.577 392.745 118.673 392.74 118.77C392.74 118.88 392.74 119 392.74 119.12C392.725 119.204 392.705 119.288 392.68 119.37C392.656 119.475 392.626 119.578 392.59 119.68C392.59 119.76 392.53 119.84 392.49 119.93C392.45 120.02 392.4 120.13 392.35 120.23L392.21 120.46C392.147 120.571 392.077 120.678 392 120.78L391.84 120.99L391.44 121.41L391.28 121.57L391 121.8L390.72 122.02C390.614 122.099 390.504 122.172 390.39 122.24L390.01 122.49C389.574 122.739 389.12 122.953 388.65 123.13L388.28 123.27C387.982 123.38 387.678 123.473 387.37 123.55C387.05 123.64 386.73 123.73 386.37 123.79C386.01 123.85 385.59 123.95 385.19 124H384.91C384.37 124 383.82 124.08 383.28 124.09H383C382.46 124.09 381.92 124.09 381.39 124H381.15C380.625 123.941 380.104 123.851 379.59 123.73L379.32 123.67C378.867 123.556 378.42 123.419 377.98 123.26L377.74 123.18C377.228 122.987 376.734 122.753 376.26 122.48C374.41 121.41 373.45 120.01 373.4 118.61V123.87C373.45 125.28 374.4 126.67 376.26 127.75C376.707 128.005 377.172 128.229 377.65 128.42H377.73L377.97 128.5C378.251 128.613 378.538 128.71 378.83 128.79L379.31 128.91L379.59 128.98L379.84 129.04C380.15 129.11 380.47 129.16 380.84 129.21H381.19H381.43H381.78C382.1 129.21 382.42 129.21 382.73 129.21C382.83 129.21 382.93 129.21 383.03 129.21H383.73C384.09 129.21 384.44 129.21 384.8 129.14H384.92H385.21L386.04 129.03C386.16 129.03 386.27 128.96 386.39 128.94C386.723 128.873 387.057 128.793 387.39 128.7L387.91 128.57L388.3 128.42L388.68 128.28C389.144 128.097 389.595 127.883 390.03 127.64L390.16 127.56L390.42 127.39L390.74 127.17L391.02 126.95L391.3 126.72H391.36L391.46 126.61C391.604 126.477 391.737 126.333 391.86 126.18L391.95 126.09C391.977 126.052 392 126.012 392.02 125.97C392.099 125.867 392.172 125.761 392.24 125.65C392.276 125.607 392.306 125.56 392.33 125.51V125.42L392.47 125.12C392.47 125.12 392.52 125.01 392.54 124.95V124.87C392.54 124.77 392.6 124.67 392.62 124.57C392.64 124.47 392.62 124.44 392.68 124.38C392.676 124.357 392.676 124.333 392.68 124.31C392.68 124.2 392.68 124.08 392.68 123.96C392.68 123.84 392.68 123.84 392.68 123.77V123.68L392.74 118.48Z" fill="#DADCE0"/>
<path id="Vector_78" d="M472.55 66.53C476.34 68.72 476.36 72.27 472.55 74.46C470.507 75.5576 468.219 76.1217 465.9 76.1C465.37 76.1 464.95 76.1 464.54 76.1L438.12 75.16C436.502 75.1454 434.898 75.4654 433.41 76.1L423.52 80.51C415.139 84.1737 407.204 88.7836 399.87 94.25L392.33 100C391.868 100.3 391.483 100.704 391.205 101.18C390.927 101.656 390.764 102.19 390.73 102.74L392.68 117.91C392.72 118.077 392.74 118.248 392.74 118.42C392.74 119.97 391.85 121.42 389.95 122.54C387.828 123.619 385.481 124.182 383.1 124.182C380.719 124.182 378.372 123.619 376.25 122.54C374.4 121.47 373.44 120.07 373.39 118.67C373.375 118.376 373.409 118.083 373.49 117.8L375.23 102.73C375.195 102.181 375.03 101.647 374.751 101.173C374.471 100.699 374.084 100.297 373.62 100L366 94.21C362.441 91.5482 358.724 89.1037 354.87 86.89C350.761 84.5254 346.528 82.3823 342.19 80.47L332.25 76.06C330.762 75.4261 329.158 75.1093 327.54 75.13L301 76.07C300.73 76.07 300.47 76.07 300.2 76.07C297.731 76.1479 295.285 75.5828 293.1 74.43C289.31 72.24 289.29 68.69 293.1 66.5C295.207 65.3704 297.57 64.8022 299.96 64.85C300.43 64.85 300.86 64.85 301.28 64.91L327.54 66.12C329.16 66.1366 330.767 65.82 332.26 65.19L342.13 60.78C350.517 57.1168 358.455 52.5032 365.79 47.03L373.37 41.3C373.83 41.0015 374.212 40.5987 374.487 40.1243C374.762 39.6499 374.92 39.1173 374.95 38.57L373.01 23.12C372.96 22.9099 372.93 22.6956 372.92 22.48C372.92 21.01 373.85 19.57 375.75 18.48C377.87 17.4 380.216 16.837 382.595 16.837C384.974 16.837 387.32 17.4 389.44 18.48C391.51 19.67 392.44 21.27 392.28 22.83L390.45 38.57C390.48 39.1181 390.635 39.652 390.903 40.1306C391.172 40.6092 391.547 41.0196 392 41.33L399.65 47.06C403.209 49.7251 406.926 52.1729 410.78 54.39C414.891 56.7507 419.124 58.8936 423.46 60.81L433.38 65.22C434.877 65.8492 436.486 66.1657 438.11 66.15L464.34 64.94C464.77 64.94 465.22 64.88 465.66 64.88C468.06 64.8351 470.431 65.403 472.55 66.53V66.53Z" fill="#C4C7D2"/>
<path id="Vector_79" d="M392.22 16.28C392.22 16.37 392.22 16.46 392.22 16.56C392.22 16.66 392.22 16.76 392.22 16.86C392.206 16.9446 392.186 17.0282 392.16 17.11C392.139 17.2082 392.113 17.3051 392.08 17.4L391.98 17.64L391.84 17.94L391.71 18.15C391.639 18.2672 391.562 18.3807 391.48 18.49L391.32 18.69C391.194 18.8463 391.057 18.9933 390.91 19.13L390.75 19.29L390.45 19.53C390.365 19.6087 390.274 19.6822 390.18 19.75L389.83 19.98L389.46 20.22C389.025 20.4632 388.574 20.677 388.11 20.86L387.73 21C387.432 21.1098 387.128 21.2033 386.82 21.28C386.507 21.3667 386.173 21.4467 385.82 21.52C385.43 21.6 385.04 21.68 384.64 21.73H384.35C383.81 21.79 383.27 21.82 382.72 21.83H382.46C381.93 21.83 381.39 21.83 380.86 21.74H380.62C380.095 21.6809 379.574 21.5907 379.06 21.47L378.78 21.41C378.32 21.29 377.87 21.15 377.44 21L377.2 20.92C376.692 20.7273 376.2 20.4931 375.73 20.22C373.82 19.12 372.86 17.67 372.86 16.22V22.48C372.86 23.92 373.81 25.37 375.72 26.48C376.172 26.7332 376.639 26.957 377.12 27.15H377.2L377.44 27.23C377.718 27.3416 378.002 27.4384 378.29 27.52C378.45 27.57 378.62 27.6 378.78 27.64L379.06 27.71L379.3 27.77C379.62 27.84 379.94 27.89 380.3 27.94H380.65H380.89H381.25C381.56 27.94 381.88 27.99 382.2 28H382.76C382.9 28 383.05 28 383.19 28C383.55 28 383.91 28 384.27 27.93H384.39H384.67C384.95 27.93 385.23 27.87 385.5 27.82C385.77 27.77 385.73 27.75 385.85 27.73C386.18 27.66 386.5 27.58 386.85 27.49L387.36 27.36C387.5 27.36 387.63 27.26 387.76 27.21L388.14 27.07C388.604 26.887 389.055 26.6732 389.49 26.43L389.61 26.36L389.85 26.19L390.21 25.96C390.301 25.8921 390.388 25.8186 390.47 25.74L390.78 25.5C390.795 25.4783 390.816 25.4611 390.84 25.45C390.868 25.4087 390.902 25.3717 390.94 25.34C391.08 25.19 391.22 25.05 391.35 24.9C391.375 24.8622 391.405 24.8284 391.44 24.8L391.5 24.7C391.586 24.5931 391.663 24.4794 391.73 24.36L391.83 24.22V24.15C391.887 24.0515 391.934 23.9477 391.97 23.84L392.06 23.67C392.06 23.67 392.06 23.67 392.06 23.61C392.06 23.55 392.12 23.42 392.15 23.32C392.18 23.22 392.15 23.19 392.2 23.12C392.206 23.1039 392.206 23.0861 392.2 23.07C392.2 22.97 392.2 22.87 392.2 22.77V22.57V22.48L392.22 16.28Z" fill="#7040CC"/>
<path id="Vector_80" d="M309.6 64.28C309.605 64.3733 309.605 64.4667 309.6 64.56C309.6 64.66 309.6 64.77 309.6 64.87L309.54 65.12C309.54 65.21 309.49 65.31 309.45 65.4C309.421 65.4817 309.388 65.5618 309.35 65.64C309.312 65.7437 309.265 65.844 309.21 65.94C309.173 66.0167 309.129 66.0903 309.08 66.16C309.01 66.27 308.94 66.38 308.85 66.5L308.7 66.69C308.57 66.84 308.43 66.99 308.29 67.13L308.12 67.29C308.028 67.3786 307.931 67.4621 307.83 67.54L307.55 67.75L307.21 67.99C307.08 68.07 306.97 68.15 306.84 68.22C306.406 68.4731 305.951 68.6873 305.48 68.86L305.11 69.01C304.82 69.11 304.51 69.2 304.2 69.28C303.89 69.36 303.56 69.46 303.2 69.53C302.84 69.6 302.42 69.68 302.02 69.73H301.74C301.2 69.79 300.65 69.81 300.11 69.82H299.85C299.312 69.8202 298.775 69.7902 298.24 69.73H298C297.47 69.67 296.95 69.58 296.44 69.47L296.17 69.4C295.706 69.295 295.248 69.1614 294.8 69L294.56 68.92C294.048 68.7273 293.553 68.4932 293.08 68.22C291.17 67.12 290.21 65.67 290.22 64.22V70.48C290.22 71.93 291.17 73.38 293.09 74.48C293.535 74.7391 294 74.9631 294.48 75.15H294.56L294.8 75.23C295.08 75.33 295.36 75.43 295.66 75.52L296.14 75.64L296.42 75.7L296.67 75.77C296.98 75.83 297.3 75.89 297.67 75.93H298.02H298.26H298.61L299.56 75.98H300.56C300.92 75.98 301.27 75.98 301.63 75.91H301.75H302.04L302.87 75.79C302.985 75.7659 303.098 75.7359 303.21 75.7C303.547 75.6372 303.881 75.5571 304.21 75.46C304.37 75.41 304.55 75.39 304.72 75.33C304.89 75.27 304.98 75.23 305.11 75.18L305.49 75.04C305.956 74.8612 306.407 74.6472 306.84 74.4L306.96 74.33L307.21 74.17L307.56 73.93L307.83 73.72L308.13 73.47H308.19C308.226 73.4357 308.259 73.3989 308.29 73.36C308.437 73.2233 308.574 73.0763 308.7 72.92C308.735 72.8916 308.765 72.8578 308.79 72.82C308.816 72.7884 308.839 72.755 308.86 72.72L309.09 72.39C309.124 72.3423 309.154 72.2921 309.18 72.24C309.18 72.24 309.18 72.24 309.18 72.17L309.32 71.87C309.32 71.81 309.38 71.75 309.4 71.69C309.42 71.63 309.4 71.69 309.4 71.63C309.433 71.5351 309.459 71.4382 309.48 71.34L309.54 71.15V71.09C309.54 70.99 309.54 70.89 309.54 70.79C309.54 70.69 309.54 70.66 309.54 70.59V70.51L309.6 64.28Z" fill="#7040CC"/>
<path id="Vector_81" d="M306.74 60.29C310.53 62.48 310.55 66.03 306.74 68.22C304.618 69.2993 302.271 69.8619 299.89 69.8619C297.509 69.8619 295.162 69.2993 293.04 68.22C289.25 66.03 289.22 62.48 292.99 60.29C295.118 59.2016 297.475 58.6341 299.865 58.6341C302.255 58.6341 304.612 59.2016 306.74 60.29V60.29Z" fill="#8C50FF"/>
<path id="Vector_82" d="M392.75 112.34C392.755 112.433 392.755 112.527 392.75 112.62C392.756 112.723 392.756 112.827 392.75 112.93C392.75 113.01 392.75 113.09 392.69 113.18C392.63 113.27 392.64 113.37 392.61 113.47C392.58 113.57 392.54 113.62 392.51 113.7L392.37 114C392.37 114.08 392.28 114.15 392.24 114.22L392.01 114.56C391.96 114.62 391.91 114.69 391.85 114.75C391.724 114.906 391.587 115.053 391.44 115.19L391.28 115.35C391.185 115.439 391.084 115.522 390.98 115.6L390.71 115.81L390.36 116.05C390.24 116.13 390.12 116.21 389.99 116.28C389.557 116.53 389.106 116.748 388.64 116.93L388.26 117.07L387.36 117.35C387.04 117.44 386.72 117.52 386.36 117.59C386 117.66 385.58 117.74 385.18 117.79H384.89C384.349 117.85 383.805 117.88 383.26 117.88H383C382.462 117.88 381.925 117.85 381.39 117.79H381.15C380.623 117.717 380.103 117.627 379.59 117.52L379.31 117.45C378.855 117.341 378.408 117.204 377.97 117.04L377.73 116.96C377.222 116.767 376.73 116.533 376.26 116.26C374.35 115.16 373.39 113.71 373.39 112.26V118.52C373.39 119.97 374.34 121.42 376.25 122.52C376.7 122.777 377.168 123.001 377.65 123.19H377.73L377.97 123.27C378.25 123.37 378.53 123.48 378.82 123.56L379.31 123.68L379.59 123.75L379.83 123.81C380.15 123.87 380.47 123.93 380.83 123.97H381.18H381.42H381.78L382.78 124.02H383.78C384.14 124.02 384.5 124.02 384.86 123.94H384.98H385.26C385.54 123.94 385.82 123.87 386.09 123.82C386.36 123.77 386.32 123.76 386.44 123.73C386.77 123.67 387.09 123.58 387.44 123.49C387.79 123.4 387.79 123.42 387.96 123.37L388.35 123.22L388.73 123.07C389.196 122.891 389.647 122.677 390.08 122.43L390.2 122.36L390.44 122.2L390.8 121.96L391.07 121.75L391.37 121.5C391.37 121.5 391.37 121.5 391.43 121.5L391.53 121.39C391.674 121.251 391.811 121.104 391.94 120.95L392.03 120.85L392.09 120.76C392.18 120.64 392.25 120.53 392.32 120.42L392.42 120.27V120.2C392.475 120.104 392.522 120.004 392.56 119.9L392.65 119.72C392.65 119.72 392.65 119.72 392.65 119.66C392.686 119.565 392.716 119.468 392.74 119.37C392.74 119.31 392.74 119.24 392.79 119.18C392.79 119.07 392.79 118.97 392.79 118.87V118.67V118.59L392.75 112.34Z" fill="#7040CC"/>
<path id="Vector_83" d="M389.9 108.35C393.69 110.54 393.71 114.09 389.9 116.28C387.782 117.366 385.436 117.933 383.055 117.933C380.675 117.933 378.328 117.366 376.21 116.28C372.41 114.09 372.38 110.54 376.15 108.35C378.279 107.263 380.635 106.697 383.025 106.697C385.415 106.697 387.771 107.263 389.9 108.35V108.35Z" fill="#8C50FF"/>
<path id="Vector_84" d="M475.4 64.35C475.4 64.45 475.4 64.54 475.4 64.64C475.4 64.74 475.4 64.84 475.4 64.94C475.385 65.0244 475.365 65.1079 475.34 65.19C475.34 65.28 475.34 65.38 475.26 65.48C475.18 65.58 475.19 65.63 475.16 65.71C475.13 65.79 475.07 65.92 475.01 66.02C474.974 66.0943 474.93 66.1647 474.88 66.23C474.81 66.34 474.74 66.46 474.66 66.57L474.5 66.76C474.372 66.9174 474.235 67.0676 474.09 67.21L473.93 67.36L473.63 67.61L473.36 67.83L473.01 68.06L472.64 68.3C472.205 68.5432 471.754 68.757 471.29 68.94L470.91 69.08C470.62 69.19 470.31 69.27 470 69.36C469.69 69.45 469.36 69.53 469 69.6C468.64 69.67 468.22 69.75 467.82 69.8H467.54C466.999 69.8602 466.455 69.8902 465.91 69.89H465.65C465.112 69.8899 464.575 69.8599 464.04 69.8H463.81C463.283 69.7333 462.763 69.6433 462.25 69.53L461.97 69.46C461.515 69.3505 461.068 69.2136 460.63 69.05L460.39 68.97C459.88 68.7765 459.386 68.5458 458.91 68.28C457 67.17 456.05 65.72 456.05 64.28V70.54C456.05 71.99 457 73.44 458.91 74.54C459.357 74.8032 459.825 75.0274 460.31 75.21H460.38L460.62 75.29C460.91 75.39 461.19 75.5 461.48 75.58L461.97 75.7L462.24 75.77L462.49 75.83C462.81 75.89 463.13 75.95 463.49 75.99H463.84H464.08H464.43C464.75 75.99 465.07 75.99 465.43 75.99H466.43C466.79 75.99 467.15 75.99 467.5 75.91H467.62H467.91C468.19 75.91 468.47 75.84 468.74 75.79L469.09 75.71C469.42 75.64 469.74 75.55 470.09 75.46C470.44 75.37 470.44 75.39 470.6 75.34C470.76 75.29 470.86 75.23 471 75.19L471.37 75.04C471.836 74.8631 472.288 74.6491 472.72 74.4L472.84 74.33L473.09 74.17L473.44 73.93L473.71 73.72C473.816 73.6447 473.917 73.5611 474.01 73.47C474.01 73.47 474.01 73.47 474.07 73.42C474.108 73.3883 474.142 73.3513 474.17 73.31C474.318 73.1708 474.458 73.024 474.59 72.87L474.68 72.77L474.74 72.68C474.83 72.56 474.9 72.45 474.97 72.34L475.07 72.2V72.12C475.12 72.02 475.17 71.92 475.21 71.82C475.241 71.7619 475.268 71.7018 475.29 71.64C475.29 71.64 475.29 71.64 475.29 71.58C475.331 71.4183 475.377 71.2582 475.43 71.1C475.43 71 475.43 70.89 475.43 70.79C475.435 70.7234 475.435 70.6566 475.43 70.59C475.43 70.59 475.43 70.59 475.43 70.51L475.4 64.35Z" fill="#7040CC"/>
<path id="Vector_85" d="M472.54 60.36C476.34 62.55 476.36 66.1 472.54 68.3C470.418 69.3793 468.071 69.9419 465.69 69.9419C463.309 69.9419 460.962 69.3793 458.84 68.3C455.05 66.11 455.02 62.55 458.79 60.36C460.918 59.2717 463.275 58.7041 465.665 58.7041C468.055 58.7041 470.412 59.2717 472.54 60.36V60.36Z" fill="#8C50FF"/>
<path id="Vector_86" d="M389.36 12.28C393.16 14.47 393.18 18.03 389.36 20.22C387.24 21.3 384.894 21.863 382.515 21.863C380.136 21.863 377.79 21.3 375.67 20.22C371.87 18.03 371.84 14.47 375.61 12.28C377.739 11.194 380.095 10.6278 382.485 10.6278C384.875 10.6278 387.231 11.194 389.36 12.28V12.28Z" fill="#8C50FF"/>
<path id="Vector_87" d="M408 58.34C407.994 58.4844 407.977 58.6281 407.95 58.77C407.929 58.8846 407.903 58.9981 407.87 59.11C407.87 59.25 407.8 59.38 407.75 59.52C407.7 59.66 407.66 59.74 407.61 59.85C407.56 59.96 407.49 60.13 407.42 60.27L407.24 60.57C407.14 60.72 407.04 60.88 406.92 61.03L406.7 61.3C406.524 61.5187 406.333 61.7258 406.13 61.92C406.06 61.99 406 62.06 405.92 62.13L405.52 62.46L405.14 62.76L404.67 63.08C404.5 63.19 404.34 63.3 404.15 63.41L385.5 74.23C385.2 74.4 384.86 74.58 384.5 74.76L384.35 74.84L383.19 75.37L382.96 75.46C382.54 75.64 382.1 75.82 381.63 76L381.42 76.08L379.9 76.62L378.49 77.08L377.49 77.39L376.59 77.65L375.51 77.94L374.58 78.18L373.47 78.44L372.53 78.66L371.4 78.88C371.09 78.94 370.77 79.01 370.45 79.06L369.67 79.19L368.55 79.36L367.76 79.45L366.76 79.56C366.35 79.56 365.94 79.62 365.54 79.64C365.14 79.66 364.99 79.64 364.73 79.64H364.17C363.78 79.64 363.4 79.64 363.04 79.64H362.72C362.26 79.64 361.82 79.59 361.4 79.49H361.22C360.806 79.4272 360.398 79.3302 360 79.2L359.82 79.14C359.473 79.0269 359.138 78.8795 358.82 78.7C358.269 78.4061 357.812 77.9634 357.501 77.4224C357.19 76.8814 357.037 76.2637 357.06 75.64V80.91C357.027 81.5371 357.173 82.1605 357.481 82.7077C357.789 83.2548 358.247 83.703 358.8 84C359.02 84.1205 359.247 84.2274 359.48 84.32L359.81 84.44L360 84.5L360.16 84.56L360.84 84.72H361.15H361.34H361.57C361.85 84.76 362.14 84.79 362.44 84.81H362.65H362.97H363.5H364.92H365.48L366.7 84.72H367.02L367.68 84.64L368.47 84.54L369.59 84.37L370.38 84.25H370.61L371.33 84.11L372.45 83.88L373.39 83.67L374.51 83.41L375.43 83.17L376.51 82.88L377.41 82.61L378.41 82.3L378.78 82.19L379.78 81.85L381.29 81.3L381.51 81.22C381.97 81.04 382.41 80.87 382.83 80.69L383.07 80.59L384.22 80.07C384.271 80.0394 384.325 80.0126 384.38 79.99C384.74 79.81 385.09 79.63 385.38 79.45L404.01 68.63L404.17 68.54L404.52 68.3L404.99 67.99C405.13 67.89 405.25 67.79 405.37 67.69C405.51 67.5846 405.643 67.4711 405.77 67.35L405.85 67.29L405.99 67.14C406.193 66.9492 406.383 66.7454 406.56 66.53L406.68 66.4C406.711 66.3517 406.744 66.305 406.78 66.26L407.09 65.79L407.22 65.6L407.27 65.49C407.345 65.354 407.412 65.2138 407.47 65.07C407.47 64.99 407.55 64.91 407.58 64.83C407.61 64.75 407.58 64.77 407.58 64.74C407.629 64.6096 407.669 64.476 407.7 64.34C407.7 64.25 407.76 64.16 407.78 64.07C407.775 64.0469 407.775 64.0231 407.78 64C407.78 63.85 407.78 63.71 407.78 63.57C407.775 63.4801 407.775 63.3899 407.78 63.3V58C408 58.08 408 58.21 408 58.34Z" fill="#7040CC"/>
<path id="Vector_88" d="M404.05 52.41C409.29 55.41 409.33 60.41 404.12 63.41L385.5 74.23C380.3 77.23 364.05 81.72 358.82 78.7C353.59 75.68 361.25 66.25 366.45 63.23L385.07 52.41C390.28 49.38 398.82 49.39 404.05 52.41Z" fill="#8C50FF"/>
<path id="Vector_89" d="M385.83 111.19C385.795 111.302 385.741 111.407 385.67 111.5V111.56C385.588 111.664 385.498 111.761 385.4 111.85C385.324 111.916 385.244 111.976 385.16 112.03L384.95 112.18C384.739 112.296 384.518 112.393 384.29 112.47L384.04 112.55L383.7 112.63L383.29 112.7H383.19C383.003 112.71 382.817 112.71 382.63 112.7H382.54H381.98H381.9C381.718 112.681 381.538 112.651 381.36 112.61H381.26L380.79 112.47H380.71C380.535 112.402 380.364 112.322 380.2 112.23C379.925 112.108 379.688 111.914 379.512 111.67C379.337 111.426 379.229 111.139 379.2 110.84V112.67C379.228 112.968 379.336 113.254 379.512 113.496C379.688 113.739 379.925 113.93 380.2 114.05C380.357 114.142 380.521 114.222 380.69 114.29H380.78C380.878 114.333 380.978 114.369 381.08 114.4H381.24H381.34H381.43L381.76 114.46H381.96H382.09H382.76H383.14H383.28H383.57H383.69L384.02 114.37H384.2H384.28C384.506 114.287 384.726 114.19 384.94 114.08L385.11 113.96L385.34 113.78C385.415 113.712 385.485 113.638 385.55 113.56V113.56V113.5L385.61 113.41C385.648 113.351 385.678 113.287 385.7 113.22C385.7 113.22 385.7 113.22 385.7 113.22C385.705 113.18 385.705 113.14 385.7 113.1C385.704 113.037 385.704 112.973 385.7 112.91V111.05C385.748 111.092 385.791 111.139 385.83 111.19V111.19Z" fill="#232833"/>
<path id="Vector_90" d="M368.21 71.27C370.01 72.27 370.03 74 368.21 75.05C367.196 75.5632 366.076 75.8305 364.94 75.8305C363.804 75.8305 362.684 75.5632 361.67 75.05C359.87 74.05 359.85 72.31 361.67 71.26C362.683 70.7445 363.804 70.4766 364.941 70.4784C366.078 70.4801 367.198 70.7514 368.21 71.27Z" fill="#394051"/>
<path id="Vector_91" d="M384.9 13.25C386.22 14.02 386.22 15.25 384.9 16.01C384.164 16.3849 383.351 16.5804 382.525 16.5804C381.699 16.5804 380.886 16.3849 380.15 16.01C378.83 15.25 378.82 14.01 380.15 13.26C380.885 12.8828 381.698 12.6852 382.524 12.6834C383.35 12.6817 384.164 12.8759 384.9 13.25V13.25Z" fill="#394051"/>
<path id="Vector_92" d="M384.9 109.46C386.22 110.22 386.22 111.46 384.9 112.22C384.164 112.595 383.351 112.79 382.525 112.79C381.699 112.79 380.886 112.595 380.15 112.22C378.83 111.46 378.82 110.22 380.15 109.46C380.886 109.087 381.7 108.892 382.525 108.892C383.35 108.892 384.164 109.087 384.9 109.46V109.46Z" fill="#394051"/>
<path id="Vector_93" d="M467.48 61.73C468.8 62.5 468.81 63.73 467.48 64.49C466.743 64.865 465.927 65.0605 465.1 65.0605C464.273 65.0605 463.457 64.865 462.72 64.49C461.4 63.73 461.4 62.49 462.72 61.74C463.455 61.3595 464.271 61.1601 465.099 61.1584C465.927 61.1566 466.743 61.3526 467.48 61.73V61.73Z" fill="#394051"/>
<path id="Vector_94" d="M302.27 61.73C303.59 62.5 303.6 63.73 302.27 64.49C301.533 64.865 300.717 65.0605 299.89 65.0605C299.063 65.0605 298.247 64.865 297.51 64.49C296.19 63.73 296.19 62.49 297.51 61.74C298.245 61.3595 299.061 61.1601 299.889 61.1584C300.717 61.1566 301.533 61.3526 302.27 61.73V61.73Z" fill="#394051"/>
<path id="Vector_95" d="M393.82 52.64L366.58 68.47L364.96 67.53L392.2 51.7L393.82 52.64Z" fill="#232833"/>
<path id="Vector_96" d="M380.03 49.16L352.79 64.99L351.16 64.05L378.4 48.22L380.03 49.16Z" fill="#232833"/>
<path id="Vector_97" d="M416.7 76.5L389.46 92.32L387.84 91.39L415.08 75.56L416.7 76.5Z" fill="#232833"/>
<path id="Vector_98" d="M401.57 60.38L374.33 76.21L372.7 75.28L399.94 59.45L401.57 60.38Z" fill="#232833"/>
<path id="Vector_99" d="M339.32 81.19C340.13 81.65 340.77 83.26 340.76 84.78C340.75 86.3 340.11 87.16 339.31 86.69C338.51 86.22 337.86 84.62 337.86 83.11C337.86 81.6 338.52 80.73 339.32 81.19Z" fill="#232833"/>
<path id="Vector_100" d="M344.07 83.4C344.88 83.86 345.52 85.47 345.51 86.99C345.5 88.51 344.86 89.37 344.05 88.9C343.24 88.43 342.61 86.83 342.61 85.32C342.61 83.81 343.27 82.94 344.07 83.4Z" fill="#232833"/>
<path id="Vector_101" d="M348.33 85.51C349.14 85.98 349.77 87.58 349.77 89.11C349.77 90.64 349.12 91.49 348.31 91.02C347.5 90.55 346.86 88.95 346.87 87.43C346.88 85.91 347.53 85.05 348.33 85.51Z" fill="#232833"/>
<path id="Vector_102" d="M358.51 91.27C359.32 91.74 359.96 93.34 359.95 94.87C359.94 96.4 359.3 97.24 358.49 96.78C357.68 96.32 357.04 94.71 357.05 93.19C357.06 91.67 357.71 90.81 358.51 91.27Z" fill="#232833"/>
<g id="drone-peca">
<g id="Group_3" opacity="0.4">
<path id="Vector_103" opacity="0.4" d="M382.53 0C398.08 0 410.68 7.28 410.68 16.25H382.53V0Z" fill="#DADCE0"/>
<path id="Vector_104" opacity="0.4" d="M382.53 32.5C366.99 32.5 354.39 25.23 354.39 16.25H382.53V32.5Z" fill="#DADCE0"/>
<path id="Vector_105" opacity="0.4" d="M382.53 96.21C398.08 96.21 410.68 103.48 410.68 112.46H382.53V96.21Z" fill="#DADCE0"/>
<path id="Vector_106" opacity="0.4" d="M382.53 128.71C366.99 128.71 354.39 121.43 354.39 112.46H382.53V128.71Z" fill="#DADCE0"/>
<path id="Vector_107" opacity="0.4" d="M465.12 48.48C480.66 48.48 493.26 55.76 493.26 64.73H465.12V48.48Z" fill="#DADCE0"/>
<path id="Vector_108" opacity="0.4" d="M465.12 81C449.57 81 437 73.71 437 64.73H465.15L465.12 81Z" fill="#DADCE0"/>
<path id="Vector_109" opacity="0.4" d="M299.91 48.48C315.45 48.48 328.05 55.76 328.05 64.73H299.91V48.48Z" fill="#DADCE0"/>
<path id="Vector_110" opacity="0.4" d="M299.91 81C284.36 81 271.76 73.73 271.76 64.75H299.91V81Z" fill="#DADCE0"/>
</g>
<g id="Group_4" opacity="0.3">
<path id="Vector_111" opacity="0.3" d="M410.68 16.25C410.68 25.25 398.08 32.5 382.53 32.5V16.25H410.68Z" fill="#DADCE0"/>
<path id="Vector_112" opacity="0.3" d="M354.39 16.25C354.39 7.28 367 0 382.53 0V16.25H354.39Z" fill="#DADCE0"/>
<path id="Vector_113" opacity="0.3" d="M410.68 112.46C410.68 121.46 398.08 128.71 382.53 128.71V112.46H410.68Z" fill="#DADCE0"/>
<path id="Vector_114" opacity="0.3" d="M354.39 112.46C354.39 103.46 366.99 96.21 382.53 96.21V112.46H354.39Z" fill="#DADCE0"/>
<path id="Vector_115" opacity="0.3" d="M493.26 64.73C493.26 73.73 480.66 80.98 465.12 80.98V64.73H493.26Z" fill="#DADCE0"/>
<path id="Vector_116" opacity="0.3" d="M437 64.73C437 55.73 449.6 48.48 465.15 48.48V64.73H437Z" fill="#DADCE0"/>
<path id="Vector_117" opacity="0.3" d="M328.05 64.73C328.05 73.73 315.45 80.98 299.91 80.98V64.73H328.05Z" fill="#DADCE0"/>
<path id="Vector_118" opacity="0.3" d="M271.76 64.73C271.76 55.73 284.36 48.48 299.91 48.48V64.73H271.76Z" fill="#DADCE0"/>
</g>
</g>
<g id="caixa">
<path id="Vector_119" d="M340.1 203.8L338.93 202.6L382.56 158.06L426.29 202.49L425.11 203.67L382.55 160.41L340.1 203.8Z" fill="#4D4D4D"/>
<path id="Vector_120" d="M426.29 202.49L426.17 243.36L382.64 268.66L382.75 227.79L426.29 202.49Z" fill="#CC8B14"/>
<path id="Vector_121" d="M382.75 227.79L382.64 268.66L338.82 243.37L338.93 202.49L382.75 227.79Z" fill="#DD9917"/>
<path id="Vector_122" d="M426.29 202.49L405.38 214.64L404.79 214.97L382.74 227.78L361.93 215.78L361.3 215.41L360.71 215.06L360.09 214.71L338.93 202.49L360.98 189.67L361.55 189.33L382.46 177.18L403.64 189.42L404.26 189.77L404.84 190.1L405.48 190.47L426.29 202.49Z" fill="#F7CB11"/>
<path id="Vector_123" d="M405.48 190.47L361.93 215.78L361.3 215.41L360.71 215.06L360.09 214.71L403.64 189.42L404.26 189.77L404.84 190.1L405.48 190.47Z" fill="#CC8B14"/>
<path id="Vector_124" d="M383.39 227.41L382.75 227.79L381.72 227.19V159.24H383.39V227.41Z" fill="#4D4D4D"/>
<path id="Vector_125" d="M386.73 159.41V156.69C386.731 156.833 386.708 156.975 386.66 157.11C386.66 157.11 386.66 157.2 386.61 157.24C386.568 157.344 386.518 157.444 386.46 157.54C386.431 157.575 386.404 157.612 386.38 157.65C386.287 157.779 386.18 157.896 386.06 158V158C385.897 158.129 385.727 158.25 385.55 158.36C385.348 158.473 385.137 158.57 384.92 158.65V158.65C384.705 158.732 384.484 158.799 384.26 158.85H384.19C383.98 158.9 383.76 158.93 383.55 158.96C383.238 159 382.924 159.02 382.61 159.02H382.47C382.2 159.02 381.93 159.02 381.67 158.96L381.38 158.91C381.16 158.91 380.95 158.81 380.74 158.75L380.48 158.67C380.204 158.576 379.936 158.459 379.68 158.32C379.34 158.167 379.047 157.926 378.83 157.622C378.614 157.318 378.483 156.962 378.45 156.59V159.32C378.485 159.692 378.618 160.049 378.836 160.353C379.054 160.657 379.349 160.897 379.69 161.05C379.942 161.191 380.207 161.308 380.48 161.4L380.74 161.48C380.95 161.54 381.16 161.59 381.38 161.63L381.67 161.68C381.935 161.719 382.202 161.742 382.47 161.75H382.61C382.924 161.755 383.239 161.735 383.55 161.69H383.63L384.14 161.6H384.19H384.26L384.53 161.53L384.87 161.42H384.92L385.11 161.34L385.38 161.21L385.54 161.12L385.64 161.06L385.88 160.9L386.05 160.76C386.13 160.69 386.2 160.61 386.27 160.54L386.34 160.43C386.37 160.396 386.397 160.359 386.42 160.32C386.443 160.292 386.464 160.262 386.48 160.23C386.514 160.165 386.544 160.098 386.57 160.03C386.573 159.987 386.573 159.943 386.57 159.9C386.655 159.749 386.71 159.582 386.73 159.41V159.41Z" fill="#282828"/>
<path id="Vector_126" d="M385.5 155C387.13 155.94 387.15 157.48 385.5 158.43C384.584 158.893 383.572 159.134 382.545 159.134C381.518 159.134 380.506 158.893 379.59 158.43C377.96 157.49 377.94 155.95 379.59 155.01C380.505 154.545 381.517 154.301 382.544 154.299C383.571 154.298 384.583 154.538 385.5 155V155Z" fill="#6E6E6E"/>
<path id="Vector_127" d="M383.39 106.78H381.72V156.65H383.39V106.78Z" fill="#4D4D4D"/>
</g>
</g>
</g>
</g>
</g>
<defs>
<clipPath id="clip0">
<rect width="493.26" height="495.29" fill="white"/>
</clipPath>
</defs>
</svg>
