<svg width="80" height="76" viewBox="0 0 80 76" fill="none" xmlns="http://www.w3.org/2000/svg">
<path d="M76.1642 0.257914C76.9549 -0.142213 77.882 -0.0641173 78.5946 0.404456C79.4437 0.814533 80.0099 1.66363 80 2.63968L79.4045 63.5271C79.3948 64.3373 78.9944 65.0986 78.3211 65.5573C77.911 65.85 77.4231 65.9966 76.935 65.9966C76.6422 65.9966 76.3394 65.9381 76.0566 65.8307C65.5541 61.7604 53.2946 56.9972 49.1269 55.3282L33.6661 74.108C33.1879 74.6839 32.485 75.0059 31.7628 75.0059C31.4797 75.0059 31.1966 74.9571 30.9234 74.8594C29.9474 74.4981 29.2933 73.5613 29.2933 72.5072V48.1347C24.6375 46.9732 10.836 43.9863 1.96321 42.1123C0.92867 41.8877 0.147715 41.0386 0.0207717 39.9844C-0.11582 38.9303 0.430849 37.9054 1.37764 37.4368L76.1642 0.257914ZM31.265 43.5367C35.0326 40.257 50.3276 25.421 64.3441 11.6876L9.9769 38.715C23.2028 41.5457 28.7955 42.8438 31.265 43.5367ZM32.1533 43.8003C32.4657 43.8979 32.69 43.9857 32.8658 44.0541C32.6315 43.9175 32.3876 43.8298 32.1533 43.8003ZM74.5049 59.8861L74.9735 11.8049C66.1596 26.719 55.4813 44.9717 52.1334 51.1696C56.5161 52.8973 66.3646 56.7237 74.5049 59.8861ZM60.9181 25.9384C62.7725 22.766 64.6272 19.6036 66.3646 16.6462C63.2607 19.6916 59.8347 23.0299 56.4281 26.3581C49.8494 32.7514 44.598 37.827 40.7915 41.448C38.527 43.6052 36.7504 45.2645 35.5208 46.3771C35.0718 46.7872 34.6424 47.1677 34.2324 47.5093V65.6154L47.3313 49.7054C48.8833 46.6114 52.5631 40.2181 60.9181 25.9384Z" fill="#8C50FF"/>
</svg>
