<svg width="438" height="500" viewBox="0 0 438 500" fill="none" xmlns="http://www.w3.org/2000/svg">
<g id="Social_media_adv_SVG 1" clip-path="url(#clip0)">
<g id="social">
<g id="social-2">
<g id="Men 12">
<path id="Vector" opacity="0.2" d="M238.8 500L2.75 363.89L134.7 288.77L370.75 424.88L238.8 500Z" fill="#D6D8E5"/>
<path id="Vector_2" d="M203.08 379.1C199.57 381.96 194.38 379.34 194.08 379.61C190.5 383.19 185.08 387.28 181.08 390.4C178.89 392.13 175.47 394.4 176.08 397.75C177.19 403.67 186.67 401.85 190.25 400.04C193.83 398.23 196.74 395.22 200.13 393.12C202.54 391.62 204.92 390.84 205.29 387.79C205.6 386 203.7 379 203.08 379.1Z" fill="#38226D"/>
<path id="Vector_3" d="M205.33 386.56C204.86 389.48 202.52 390.29 200.12 391.78C196.68 393.91 193.65 397 190.12 398.78C186.81 400.45 178.57 402.11 176.25 397.88C177.51 403.59 186.82 401.8 190.37 400.01C193.92 398.22 196.86 395.19 200.25 393.09C202.66 391.59 205.04 390.81 205.41 387.76C205.428 387.358 205.402 386.956 205.33 386.56Z" fill="#9C73FF"/>
<path id="Vector_4" d="M167.43 358.57C163.92 361.43 157.77 358.3 157.51 358.57C153.848 362.265 149.979 365.747 145.92 369C143.73 370.72 140.32 373 140.92 376.34C142.02 382.26 151.5 380.44 155.08 378.63C158.66 376.82 161.58 373.81 164.96 371.71C167.38 370.21 169.75 369.43 170.13 366.39C170.37 364.57 168.06 358.49 167.43 358.57Z" fill="#38226D"/>
<path id="Vector_5" d="M170 365.6C169.54 368.52 167.19 369.33 164.8 370.82C161.36 372.95 158.33 376.04 154.75 377.82C151.45 379.49 143.2 381.15 140.88 376.92C142.15 382.63 151.46 380.84 155 379.05C158.54 377.26 161.5 374.23 164.88 372.13C167.3 370.63 169.67 369.85 170.05 366.8C170.073 366.399 170.056 365.997 170 365.6V365.6Z" fill="#9C73FF"/>
<path id="&#60;&#208;&#154;&#208;&#190;&#208;&#189;&#209;&#130;&#209;&#131;&#209;&#128;&#62;" d="M250.07 266.46C253.96 290.79 243.15 299.87 229.07 305.05C218.99 308.76 204.53 314.48 204.53 314.48C204.53 314.48 204.73 319.82 204.84 331.81C204.94 342.36 203.55 380.89 203.55 380.89C203.55 380.89 197.73 383.89 192.79 380.77C192.79 380.77 187.13 351.25 185.92 337.94C184.29 319.89 181.52 308.07 182.45 304.19C183.26 300.77 202.99 291.06 209.25 285.87L167.91 299.72C168.733 304.206 169.135 308.759 169.11 313.32C168.73 327.64 167.94 358.65 167.94 358.65C167.94 358.65 162.27 362.74 157.43 358.73C157.43 358.73 147.03 297.34 148.29 289.21C149.49 281.5 185.92 265.74 192.34 260.31C193.46 259.4 194.759 258.735 196.153 258.359C197.547 257.984 199.004 257.906 200.43 258.13L250.07 266.46Z" fill="#8C50FF"/>
<path id="Vector_6" d="M234.24 178.79L258.29 190.56C258.29 190.56 271.35 195.21 267.69 217.28C265.03 233.28 261.47 265.36 261.47 265.36L216.25 260.78L234.24 178.79Z" fill="#2B303F"/>
<path id="&#60;&#208;&#154;&#208;&#190;&#208;&#189;&#209;&#130;&#209;&#131;&#209;&#128;&#62;_2" d="M235.68 174.86C235.68 174.86 235.08 186.45 235.34 187.48C235.6 188.51 240.66 191.9 242.13 193.12C243.6 194.34 234.13 203.69 229.51 205.81C224.89 207.93 210.28 202.34 210.02 195.17C209.76 188 212.52 181.96 214.77 181.64C217.02 181.32 235.68 174.86 235.68 174.86Z" fill="#FFCEA9"/>
<path id="Vector_7" d="M193.59 201.62L185.26 215.5L174.16 228L182.49 233.55L193.59 223.83C193.59 223.83 211.16 203 210 201.62C208.84 200.24 193.59 201.62 193.59 201.62Z" fill="#FFCEA9"/>
<path id="&#60;&#208;&#154;&#208;&#190;&#208;&#189;&#209;&#130;&#209;&#131;&#209;&#128;&#62;_3" d="M237 189.48C237 189.48 228.59 202 216.86 203.18C213.16 199.54 212.86 186.56 217.94 182.41C217.94 182.41 213.24 178.62 210.02 179.35C206.562 181.45 203.988 184.739 202.78 188.6C199.792 197.217 198.389 206.303 198.64 215.42C198.84 227.72 198.64 258.8 198.64 258.8C198.64 258.8 200.39 270.68 211 276.59C219.454 281.364 229.409 282.737 238.84 280.43C244.78 279.05 247 275.72 249.04 271.43C248.51 262.81 245.1 245.07 246.54 234.24C247.98 223.41 250.26 215.31 250.85 206.55C251.44 197.79 249.7 197.97 245.31 194.84C242.674 192.853 239.897 191.062 237 189.48Z" fill="#F4F4F4"/>
<path id="Vector_8" d="M231.7 486.11C234.765 486.11 237.25 484.673 237.25 482.9C237.25 481.127 234.765 479.69 231.7 479.69C228.635 479.69 226.15 481.127 226.15 482.9C226.15 484.673 228.635 486.11 231.7 486.11Z" fill="#2B303F"/>
<path id="Vector_9" d="M237.26 373.65H226.15V482.57H237.26V373.65Z" fill="#2B303F"/>
<path id="Vector_10" d="M27.21 364.14C30.2752 364.14 32.76 362.703 32.76 360.93C32.76 359.157 30.2752 357.72 27.21 357.72C24.1448 357.72 21.66 359.157 21.66 360.93C21.66 362.703 24.1448 364.14 27.21 364.14Z" fill="#2B303F"/>
<path id="Vector_11" d="M32.77 251.67H21.66V360.59H32.77V251.67Z" fill="#2B303F"/>
<path id="Vector_12" d="M346.02 421.55C349.085 421.55 351.57 420.113 351.57 418.34C351.57 416.567 349.085 415.13 346.02 415.13C342.955 415.13 340.47 416.567 340.47 418.34C340.47 420.113 342.955 421.55 346.02 421.55Z" fill="#2B303F"/>
<path id="Vector_13" d="M351.58 317.42H340.47V418.01H351.58V317.42Z" fill="#2B303F"/>
<path id="Vector_14" d="M359.74 329L121.49 191.48L8.76001 256.56L2.76001 253.09V260L247 401.06L365.74 332.51V325.57L359.74 329Z" fill="#D3C4A9"/>
<path id="Vector_15" d="M247.02 394.12L2.75 253.09L121.49 184.54L365.76 325.57L247.02 394.12Z" fill="#EFE3CA"/>
<path id="&#60;&#208;&#154;&#208;&#190;&#208;&#189;&#209;&#130;&#209;&#131;&#209;&#128;&#62;_4" d="M223.49 289.34C225.55 288.34 227.05 286.78 230.07 285.56C232.2 284.9 234.136 283.729 235.71 282.15C237.77 280.15 241.15 272.49 243.56 265.05C246.41 256.26 246.9 244.32 246.4 239.17C245.4 228.73 241.61 214.11 240.66 208.1C239.71 202.09 241.66 199.7 244.44 197.48C247.72 194.88 252.25 196.03 254.68 204.48C257.799 216.136 259.607 228.103 260.07 240.16C260.171 249.104 258.796 258.004 256 266.5C253.47 274.4 250.17 280.08 245.95 287.22C244.79 289.16 244.42 290.89 242.66 294.85C240.9 298.81 237.9 303 235 305.09C232.1 307.18 230.66 307.5 230 307.09C229.13 306.58 229.31 305.64 230.54 304.52C232.634 302.89 234.416 300.895 235.8 298.63C235.8 298.63 233.22 301.22 231.54 302.63C230.045 303.889 228.391 304.944 226.62 305.77C224.89 306.53 222.5 305.07 223.72 303.91C224.94 302.75 226.19 302.18 228.65 300.05C229.959 298.929 231.131 297.657 232.14 296.26C230.415 297.577 228.589 298.758 226.68 299.79C224 301.16 222.61 301.18 221.68 301.14C220.75 301.1 219.68 299.83 221.37 298.59C222.9 297.48 225.3 296.73 227.89 294.15C229.77 292.28 230.84 290.69 230.31 290.66C229.78 290.63 228.75 291.8 226.54 292.5C224.33 293.2 221.97 292.56 221.69 291.35C221.41 290.14 221.43 290.36 223.49 289.34Z" fill="#FFCEA9"/>
<path id="&#60;&#208;&#154;&#208;&#190;&#208;&#189;&#209;&#130;&#209;&#131;&#209;&#128;&#62;_5" d="M209.45 157.59C210.83 148.59 217.31 141.77 226.59 142.29C230.32 142.486 233.894 143.849 236.809 146.184C239.723 148.52 241.831 151.712 242.835 155.31C243.839 158.907 243.689 162.729 242.405 166.237C241.121 169.744 238.769 172.76 235.68 174.86C235.355 176.222 234.872 177.541 234.24 178.79C230.96 182.63 221.04 185 218.19 184.59C214.53 184.07 212.54 182.54 210.8 178.54C207.72 171.48 208.69 162 209.45 157.59Z" fill="#FFCEA9"/>
<path id="Vector_16" d="M235.68 174.86L234.83 167.01C234.83 167.01 241.24 150.41 226.09 153.6C216.09 155.7 213.58 156.6 210.53 149.9C207.48 143.2 218.22 137.16 230.97 138.83C235.359 139.29 239.415 141.383 242.334 144.693C245.253 148.002 246.822 152.288 246.73 156.7C246.4 161.64 245.08 171.63 235.68 174.86Z" fill="#3A2C6D"/>
<path id="Vector_17" d="M261.61 219.91C261.61 219.91 253.34 228.13 243.56 225.76C242.16 224.81 238.8 205.59 238.8 205.59C238.8 205.59 238.8 194.94 246.97 195.22C255.14 195.5 261.61 219.91 261.61 219.91Z" fill="#EDEDED"/>
<g id="&#60;&#208;&#147;&#209;&#128;&#209;&#131;&#208;&#191;&#208;&#191;&#208;&#176;&#62;">
<g id="&#60;&#208;&#147;&#209;&#128;&#209;&#131;&#208;&#191;&#208;&#191;&#208;&#176;&#62;_2">
<path id="&#60;&#208;&#154;&#208;&#190;&#208;&#189;&#209;&#130;&#209;&#131;&#209;&#128;&#62;_6" d="M131.44 266.9L164.27 248C164.557 247.833 164.883 247.745 165.215 247.745C165.547 247.745 165.873 247.833 166.16 248L223.75 281.25L190 300.7L131.44 266.9Z" fill="#F4F4F4"/>
<path id="Vector_18" d="M191.51 293.73L194.01 295.17C194.21 295.29 194.19 295.5 193.95 295.63L191.56 297C191.438 297.064 191.303 297.097 191.165 297.097C191.027 297.097 190.892 297.064 190.77 297L188.26 295.56C188.06 295.44 188.09 295.24 188.32 295.1L190.71 293.72C190.835 293.66 190.972 293.63 191.111 293.631C191.25 293.633 191.386 293.667 191.51 293.73Z" fill="#2B303F"/>
<path id="Vector_19" d="M188 291.68L190.51 293.13C190.71 293.25 190.69 293.45 190.45 293.59L188 295C187.876 295.062 187.739 295.094 187.6 295.094C187.461 295.094 187.324 295.062 187.2 295L184.7 293.55C184.5 293.44 184.52 293.23 184.76 293.09L187.15 291.72C187.277 291.643 187.421 291.599 187.57 291.592C187.718 291.585 187.866 291.615 188 291.68V291.68Z" fill="#2B303F"/>
<path id="Vector_20" d="M184.38 289.61L186.88 291.06C187.09 291.18 187.06 291.38 186.88 291.52L184.49 292.9C184.366 292.962 184.229 292.994 184.09 292.994C183.951 292.994 183.814 292.962 183.69 292.9L181.19 291.46C180.98 291.34 181.01 291.13 181.25 291L183.63 289.62C183.747 289.565 183.875 289.536 184.004 289.534C184.133 289.532 184.261 289.558 184.38 289.61V289.61Z" fill="#2B303F"/>
<path id="Vector_21" d="M180.88 287.59L183.38 289.04C183.59 289.16 183.56 289.36 183.32 289.5L180.94 290.88C180.815 290.941 180.679 290.973 180.54 290.973C180.401 290.973 180.265 290.941 180.14 290.88L177.64 289.43C177.43 289.32 177.46 289.11 177.69 288.97L180.08 287.6C180.203 287.535 180.34 287.501 180.479 287.499C180.618 287.497 180.755 287.528 180.88 287.59V287.59Z" fill="#2B303F"/>
<path id="Vector_22" d="M177.34 285.55L179.84 286.99C180.04 287.11 180.02 287.32 179.78 287.45L177.39 288.83C177.268 288.894 177.133 288.927 176.995 288.927C176.857 288.927 176.722 288.894 176.6 288.83L174.09 287.39C173.89 287.27 173.92 287.06 174.15 286.93L176.54 285.55C176.664 285.486 176.801 285.453 176.94 285.453C177.079 285.453 177.216 285.486 177.34 285.55V285.55Z" fill="#2B303F"/>
<path id="Vector_23" d="M173.79 283.5L176.3 285C176.5 285.11 176.47 285.32 176.24 285.46L173.85 286.84C173.726 286.902 173.589 286.934 173.45 286.934C173.311 286.934 173.174 286.902 173.05 286.84L170.55 285.39C170.35 285.28 170.37 285.07 170.61 284.93L173 283.55C173.119 283.481 173.252 283.44 173.389 283.431C173.526 283.422 173.664 283.446 173.79 283.5Z" fill="#2B303F"/>
<path id="Vector_24" d="M170.25 281.46L172.75 282.9C172.96 283.02 172.93 283.22 172.7 283.36L170.31 284.74C170.186 284.804 170.049 284.837 169.91 284.837C169.771 284.837 169.634 284.804 169.51 284.74L167.01 283.3C166.8 283.18 166.83 282.97 167.07 282.84L169.45 281.46C169.574 281.396 169.711 281.363 169.85 281.363C169.989 281.363 170.126 281.396 170.25 281.46V281.46Z" fill="#2B303F"/>
<path id="Vector_25" d="M166.71 279.41L169.21 280.86C169.41 280.97 169.39 281.18 169.15 281.32L166.77 282.69C166.646 282.753 166.509 282.786 166.37 282.786C166.231 282.786 166.094 282.753 165.97 282.69L163.47 281.24C163.26 281.12 163.29 280.92 163.52 280.78L165.91 279.4C166.035 279.34 166.172 279.309 166.311 279.311C166.45 279.313 166.586 279.347 166.71 279.41Z" fill="#2B303F"/>
<path id="Vector_26" d="M163.17 277.37L165.67 278.81C165.87 278.93 165.85 279.13 165.61 279.27L163.22 280.65C163.098 280.714 162.963 280.747 162.825 280.747C162.687 280.747 162.552 280.714 162.43 280.65L159.92 279.21C159.72 279.09 159.75 278.88 159.98 278.75L162.37 277.37C162.494 277.306 162.631 277.273 162.77 277.273C162.909 277.273 163.046 277.306 163.17 277.37V277.37Z" fill="#2B303F"/>
<path id="Vector_27" d="M159.62 275.32L162.13 276.77C162.33 276.88 162.3 277.09 162.07 277.22L159.68 278.6C159.555 278.661 159.419 278.693 159.28 278.693C159.141 278.693 159.005 278.661 158.88 278.6L156.38 277.15C156.18 277.03 156.2 276.83 156.44 276.69L158.83 275.31C158.953 275.25 159.089 275.22 159.226 275.221C159.363 275.223 159.498 275.257 159.62 275.32V275.32Z" fill="#2B303F"/>
<path id="Vector_28" d="M156.08 273.27L158.58 274.72C158.79 274.84 158.76 275.04 158.53 275.18L156.14 276.56C156.016 276.622 155.879 276.654 155.74 276.654C155.601 276.654 155.464 276.622 155.34 276.56L152.84 275.12C152.63 275 152.66 274.79 152.9 274.66L155.28 273.28C155.404 273.218 155.54 273.184 155.679 273.182C155.817 273.181 155.955 273.211 156.08 273.27V273.27Z" fill="#2B303F"/>
<path id="Vector_29" d="M152.54 271.23L155.04 272.67C155.24 272.79 155.22 273 154.98 273.13L152.59 274.51C152.467 274.571 152.332 274.602 152.195 274.602C152.058 274.602 151.923 274.571 151.8 274.51L149.3 273.06C149.09 272.94 149.12 272.74 149.3 272.6L151.69 271.22C151.822 271.152 151.968 271.117 152.116 271.118C152.265 271.12 152.41 271.158 152.54 271.23Z" fill="#2B303F"/>
<path id="Vector_30" d="M149 269.18L151.51 270.63C151.71 270.75 151.69 270.95 151.45 271.09L149.06 272.47C148.937 272.532 148.802 272.564 148.665 272.564C148.528 272.564 148.393 272.532 148.27 272.47L145.76 271.03C145.56 270.91 145.58 270.7 145.82 270.57L148.21 269.19C148.332 269.128 148.467 269.094 148.604 269.093C148.741 269.091 148.876 269.121 149 269.18Z" fill="#2B303F"/>
<path id="Vector_31" d="M143.75 266.15L147.95 268.58C148.16 268.7 148.13 268.91 147.95 269.04L145.56 270.42C145.435 270.481 145.299 270.513 145.16 270.513C145.021 270.513 144.885 270.481 144.76 270.42L140.5 268C140.3 267.88 140.33 267.67 140.56 267.54L142.95 266.16C143.074 266.098 143.21 266.064 143.349 266.062C143.487 266.061 143.625 266.091 143.75 266.15V266.15Z" fill="#2B303F"/>
<path id="Vector_32" d="M189.69 288.71L192.19 290.16C192.39 290.27 192.37 290.48 192.13 290.62L189.74 292C189.617 292.062 189.482 292.094 189.345 292.094C189.208 292.094 189.073 292.062 188.95 292L186.44 290.55C186.24 290.44 186.27 290.23 186.5 290.09L188.89 288.71C189.014 288.648 189.151 288.616 189.29 288.616C189.429 288.616 189.566 288.648 189.69 288.71V288.71Z" fill="#2B303F"/>
<path id="Vector_33" d="M186.14 286.66L188.64 288.11C188.84 288.23 188.82 288.43 188.58 288.57L186.19 290C186.067 290.062 185.932 290.094 185.795 290.094C185.658 290.094 185.523 290.062 185.4 290L182.89 288.55C182.69 288.44 182.72 288.23 182.95 288.09L185.34 286.72C185.46 286.65 185.594 286.607 185.733 286.597C185.872 286.587 186.011 286.608 186.14 286.66V286.66Z" fill="#2B303F"/>
<path id="Vector_34" d="M182.59 284.61L185.09 286.06C185.29 286.18 185.27 286.38 185.03 286.52L182.65 287.9C182.525 287.961 182.389 287.993 182.25 287.993C182.111 287.993 181.975 287.961 181.85 287.9L179.35 286.46C179.14 286.34 179.17 286.13 179.4 286L181.79 284.62C181.914 284.557 182.05 284.524 182.189 284.522C182.327 284.521 182.465 284.551 182.59 284.61Z" fill="#2B303F"/>
<path id="Vector_35" d="M179 282.57L181.5 284.01C181.71 284.13 181.68 284.33 181.44 284.47L179.06 285.85C178.935 285.911 178.799 285.943 178.66 285.943C178.521 285.943 178.385 285.911 178.26 285.85L175.76 284.41C175.55 284.29 175.58 284.08 175.76 283.95L178.15 282.57C178.28 282.497 178.426 282.459 178.575 282.459C178.724 282.459 178.87 282.497 179 282.57V282.57Z" fill="#2B303F"/>
<path id="Vector_36" d="M175.52 280.53L178 282C178.21 282.12 178.18 282.32 177.94 282.46L175.56 283.84C175.435 283.901 175.299 283.933 175.16 283.933C175.021 283.933 174.885 283.901 174.76 283.84L172.26 282.39C172.05 282.28 172.08 282.07 172.31 281.93L174.7 280.56C174.824 280.489 174.963 280.449 175.106 280.444C175.249 280.438 175.391 280.468 175.52 280.53V280.53Z" fill="#2B303F"/>
<path id="Vector_37" d="M172 278.48L174.5 279.93C174.71 280.05 174.68 280.25 174.45 280.39L172 281.77C171.875 281.831 171.739 281.863 171.6 281.863C171.461 281.863 171.325 281.831 171.2 281.77L168.7 280.33C168.49 280.21 168.52 280 168.76 279.87L171.14 278.49C171.271 278.418 171.419 278.379 171.569 278.377C171.719 278.375 171.867 278.411 172 278.48V278.48Z" fill="#2B303F"/>
<path id="Vector_38" d="M168.42 276.44L170.92 277.88C171.13 278 171.1 278.2 170.92 278.34L168.53 279.72C168.406 279.782 168.269 279.814 168.13 279.814C167.991 279.814 167.854 279.782 167.73 279.72L165.23 278.28C165.03 278.16 165.05 277.95 165.29 277.82L167.67 276.44C167.787 276.384 167.915 276.355 168.045 276.355C168.175 276.355 168.303 276.384 168.42 276.44V276.44Z" fill="#2B303F"/>
<path id="Vector_39" d="M164.87 274.39L167.38 275.83C167.58 275.95 167.55 276.15 167.32 276.29L164.93 277.67C164.806 277.734 164.669 277.767 164.53 277.767C164.391 277.767 164.254 277.734 164.13 277.67L161.63 276.23C161.43 276.11 161.45 275.9 161.69 275.77L164.08 274.39C164.202 274.326 164.337 274.293 164.475 274.293C164.613 274.293 164.748 274.326 164.87 274.39V274.39Z" fill="#2B303F"/>
<path id="Vector_40" d="M161.32 272.34L163.83 273.78C164.03 273.9 164 274.11 163.77 274.24L161.38 275.62C161.256 275.684 161.119 275.717 160.98 275.717C160.841 275.717 160.704 275.684 160.58 275.62L158.08 274.18C157.88 274.06 157.9 273.86 158.14 273.72L160.53 272.34C160.652 272.276 160.787 272.243 160.925 272.243C161.063 272.243 161.198 272.276 161.32 272.34V272.34Z" fill="#2B303F"/>
<path id="Vector_41" d="M157.78 270.29L160.28 271.73C160.48 271.85 160.46 272.06 160.22 272.19L157.83 273.57C157.708 273.634 157.573 273.667 157.435 273.667C157.297 273.667 157.162 273.634 157.04 273.57L154.53 272.13C154.33 272.01 154.35 271.81 154.59 271.67L156.98 270.29C157.104 270.228 157.241 270.196 157.38 270.196C157.519 270.196 157.656 270.228 157.78 270.29V270.29Z" fill="#2B303F"/>
<path id="Vector_42" d="M154.23 268.24L156.73 269.68C156.93 269.8 156.91 270.01 156.67 270.14L154.28 271.52C154.157 271.581 154.022 271.612 153.885 271.612C153.748 271.612 153.613 271.581 153.49 271.52L151 270.11C150.8 269.99 150.83 269.79 151.06 269.65L153.45 268.27C153.569 268.207 153.702 268.171 153.837 268.166C153.972 268.161 154.106 268.186 154.23 268.24V268.24Z" fill="#2B303F"/>
<path id="Vector_43" d="M150.68 266.19L153.18 267.64C153.38 267.75 153.36 267.96 153.12 268.1L150.73 269.47C150.608 269.533 150.472 269.566 150.335 269.566C150.198 269.566 150.062 269.533 149.94 269.47L147.44 268.02C147.23 267.9 147.26 267.7 147.49 267.56L149.88 266.18C150.005 266.12 150.142 266.089 150.281 266.091C150.42 266.093 150.556 266.127 150.68 266.19V266.19Z" fill="#2B303F"/>
<path id="Vector_44" d="M193.23 290.76L197.44 293.19C197.65 293.31 197.62 293.51 197.39 293.65L195 295C194.876 295.064 194.739 295.097 194.6 295.097C194.461 295.097 194.324 295.064 194.2 295L190 292.63C189.8 292.51 189.82 292.31 190.06 292.17L192.45 290.79C192.569 290.725 192.701 290.689 192.836 290.684C192.972 290.679 193.106 290.705 193.23 290.76V290.76Z" fill="#2B303F"/>
<path id="Vector_45" d="M143.92 266L146.42 267.45C146.535 267.507 146.662 267.536 146.79 267.536C146.918 267.536 147.045 267.507 147.16 267.45L149.69 265.99C149.734 265.973 149.771 265.944 149.798 265.906C149.824 265.867 149.838 265.822 149.838 265.775C149.838 265.728 149.824 265.683 149.798 265.644C149.771 265.606 149.734 265.577 149.69 265.56L149.49 265.44C149.3 265.34 149.3 265.16 149.49 265.05L152.16 263.51C152.37 263.39 152.37 263.2 152.16 263.08L150.57 262.16C150.456 262.101 150.329 262.071 150.2 262.071C150.071 262.071 149.944 262.101 149.83 262.16L147.33 263.6L146.82 263.9L146.44 264.12L146.07 264.33L143.92 265.57C143.71 265.71 143.71 265.9 143.92 266Z" fill="#2B303F"/>
<path id="Vector_46" d="M205.23 285.79L207.73 287.24C207.93 287.35 207.91 287.56 207.67 287.7L205.28 289.07C205.157 289.131 205.022 289.162 204.885 289.162C204.748 289.162 204.613 289.131 204.49 289.07L201.99 287.62C201.78 287.5 201.81 287.3 201.99 287.16L204.38 285.78C204.512 285.712 204.658 285.677 204.806 285.678C204.955 285.68 205.1 285.718 205.23 285.79V285.79Z" fill="#2B303F"/>
<path id="Vector_47" d="M201.69 283.75L204.2 285.2C204.4 285.31 204.38 285.52 204.14 285.66L201.75 287C201.628 287.063 201.492 287.096 201.355 287.096C201.218 287.096 201.082 287.063 200.96 287L198.45 285.55C198.25 285.43 198.27 285.23 198.51 285.09L200.9 283.71C201.026 283.655 201.163 283.629 201.3 283.636C201.437 283.643 201.571 283.682 201.69 283.75V283.75Z" fill="#2B303F"/>
<path id="Vector_48" d="M198.16 281.71L200.66 283.16C200.87 283.27 200.84 283.48 200.66 283.62L198.22 285C198.096 285.063 197.959 285.096 197.82 285.096C197.681 285.096 197.544 285.063 197.42 285L194.92 283.55C194.72 283.44 194.74 283.23 194.98 283.09L197.37 281.71C197.493 281.648 197.628 281.616 197.765 281.616C197.902 281.616 198.037 281.648 198.16 281.71V281.71Z" fill="#2B303F"/>
<path id="Vector_49" d="M168.08 264.34L170.58 265.79C170.79 265.91 170.76 266.11 170.52 266.25L168.14 267.63C168.015 267.691 167.879 267.723 167.74 267.723C167.601 267.723 167.465 267.691 167.34 267.63L164.84 266.18C164.63 266.07 164.66 265.86 164.84 265.72L167.23 264.35C167.359 264.277 167.505 264.237 167.654 264.236C167.802 264.234 167.949 264.27 168.08 264.34V264.34Z" fill="#2B303F"/>
<path id="Vector_50" d="M164.55 262.3L167.05 263.75C167.25 263.87 167.23 264.07 166.99 264.21L164.6 265.59C164.477 265.652 164.342 265.684 164.205 265.684C164.068 265.684 163.933 265.652 163.81 265.59L161.3 264.14C161.1 264.03 161.13 263.82 161.36 263.68L163.75 262.31C163.874 262.248 164.01 262.214 164.149 262.212C164.288 262.211 164.425 262.241 164.55 262.3V262.3Z" fill="#2B303F"/>
<path id="Vector_51" d="M161 260.26L163.51 261.71C163.71 261.83 163.68 262.03 163.45 262.17L161.06 263.55C160.936 263.612 160.799 263.644 160.66 263.644C160.521 263.644 160.384 263.612 160.26 263.55L157.76 262.11C157.56 261.99 157.58 261.78 157.82 261.65L160.21 260.27C160.332 260.208 160.467 260.174 160.604 260.173C160.741 260.171 160.876 260.201 161 260.26V260.26Z" fill="#2B303F"/>
<path id="Vector_52" d="M157.48 258.22L159.98 259.67C160.19 259.79 160.16 259.99 159.98 260.13L157.59 261.51C157.466 261.572 157.329 261.604 157.19 261.604C157.051 261.604 156.914 261.572 156.79 261.51L154.29 260.07C154.08 259.95 154.11 259.74 154.35 259.61L156.73 258.23C156.847 258.175 156.975 258.146 157.104 258.144C157.233 258.142 157.361 258.168 157.48 258.22V258.22Z" fill="#2B303F"/>
<path id="Vector_53" d="M193.72 279.15L197.13 281.15C197.34 281.26 197.31 281.47 197.07 281.61L194.69 283C194.565 283.061 194.429 283.093 194.29 283.093C194.151 283.093 194.015 283.061 193.89 283L190.48 281C190.27 280.88 190.3 280.67 190.54 280.54L192.92 279.16C193.043 279.094 193.18 279.059 193.319 279.058C193.458 279.056 193.596 279.088 193.72 279.15V279.15Z" fill="#2B303F"/>
<path id="Vector_54" d="M171.61 266.38L175.02 268.38C175.23 268.5 175.2 268.71 174.97 268.84L172.58 270.22C172.456 270.284 172.319 270.317 172.18 270.317C172.041 270.317 171.904 270.284 171.78 270.22L168.37 268.22C168.17 268.11 168.19 267.9 168.43 267.76L170.81 266.39C170.933 266.325 171.07 266.291 171.209 266.289C171.348 266.287 171.485 266.318 171.61 266.38V266.38Z" fill="#2B303F"/>
<path id="Vector_55" d="M176.05 269L192.69 278.6C192.89 278.72 192.87 278.93 192.63 279.06L190.24 280.44C190.118 280.504 189.983 280.537 189.845 280.537C189.707 280.537 189.572 280.504 189.45 280.44L172.81 270.84C172.61 270.72 172.63 270.51 172.87 270.38L175.26 269C175.382 268.936 175.517 268.903 175.655 268.903C175.793 268.903 175.928 268.936 176.05 269V269Z" fill="#2B303F"/>
<path id="Vector_56" d="M192.16 286.17L194.66 287.62C194.86 287.74 194.84 287.94 194.6 288.08L192.21 289.46C192.087 289.522 191.952 289.554 191.815 289.554C191.678 289.554 191.543 289.522 191.42 289.46L188.91 288C188.71 287.89 188.73 287.68 188.97 287.54L191.36 286.17C191.485 286.109 191.621 286.077 191.76 286.077C191.899 286.077 192.035 286.109 192.16 286.17V286.17Z" fill="#2B303F"/>
<path id="Vector_57" d="M188.62 284.13L191.12 285.57C191.32 285.69 191.3 285.9 191.06 286.03L188.67 287.41C188.547 287.471 188.412 287.502 188.275 287.502C188.138 287.502 188.003 287.471 187.88 287.41L185.37 286C185.17 285.88 185.2 285.68 185.43 285.54L187.82 284.16C187.942 284.094 188.078 284.056 188.216 284.051C188.355 284.046 188.493 284.073 188.62 284.13V284.13Z" fill="#2B303F"/>
<path id="Vector_58" d="M185.08 282.09L187.58 283.53C187.78 283.65 187.76 283.86 187.52 283.99L185.14 285.37C185.016 285.434 184.879 285.467 184.74 285.467C184.601 285.467 184.464 285.434 184.34 285.37L181.84 283.93C181.63 283.81 181.66 283.6 181.84 283.47L184.23 282.09C184.36 282.017 184.506 281.979 184.655 281.979C184.804 281.979 184.95 282.017 185.08 282.09V282.09Z" fill="#2B303F"/>
<path id="Vector_59" d="M181.54 280L184.04 281.45C184.25 281.57 184.22 281.77 183.98 281.91L181.6 283.29C181.475 283.351 181.339 283.383 181.2 283.383C181.061 283.383 180.925 283.351 180.8 283.29L178.3 281.85C178.09 281.73 178.12 281.52 178.3 281.39L180.69 280.01C180.82 279.939 180.966 279.901 181.114 279.9C181.262 279.898 181.408 279.932 181.54 280V280Z" fill="#2B303F"/>
<path id="Vector_60" d="M178 278L180.5 279.45C180.71 279.56 180.68 279.77 180.45 279.91L178.06 281.28C177.936 281.343 177.799 281.376 177.66 281.376C177.521 281.376 177.384 281.343 177.26 281.28L174.76 279.83C174.55 279.71 174.58 279.51 174.82 279.37L177.2 278C177.325 277.939 177.461 277.907 177.6 277.907C177.739 277.907 177.875 277.939 178 278V278Z" fill="#2B303F"/>
<path id="Vector_61" d="M174.46 276L176.96 277.44C177.17 277.56 177.14 277.77 176.91 277.9L174.52 279.28C174.396 279.344 174.259 279.377 174.12 279.377C173.981 279.377 173.844 279.344 173.72 279.28L171.22 277.84C171.02 277.72 171.04 277.52 171.28 277.38L173.67 276C173.792 275.936 173.927 275.903 174.065 275.903C174.203 275.903 174.338 275.936 174.46 276V276Z" fill="#2B303F"/>
<path id="Vector_62" d="M170.92 273.91L173.43 275.36C173.63 275.48 173.6 275.68 173.37 275.82L171 277.2C170.876 277.262 170.739 277.294 170.6 277.294C170.461 277.294 170.324 277.262 170.2 277.2L167.7 275.76C167.5 275.64 167.52 275.43 167.76 275.3L170.15 273.92C170.269 273.861 170.401 273.829 170.534 273.827C170.667 273.826 170.799 273.854 170.92 273.91V273.91Z" fill="#2B303F"/>
<path id="Vector_63" d="M167.38 271.87L169.89 273.32C170.09 273.43 170.07 273.64 169.83 273.78L167.44 275.15C167.318 275.213 167.182 275.246 167.045 275.246C166.908 275.246 166.772 275.213 166.65 275.15L164.14 273.7C163.94 273.59 163.96 273.38 164.2 273.24L166.59 271.86C166.713 271.8 166.849 271.77 166.986 271.771C167.123 271.773 167.258 271.807 167.38 271.87Z" fill="#2B303F"/>
<path id="Vector_64" d="M163.85 269.83L166.35 271.27C166.55 271.39 166.53 271.6 166.29 271.73L163.9 273.11C163.778 273.174 163.643 273.207 163.505 273.207C163.367 273.207 163.232 273.174 163.11 273.11L160.6 271.67C160.4 271.55 160.43 271.35 160.66 271.21L163.05 269.83C163.174 269.768 163.311 269.736 163.45 269.736C163.589 269.736 163.726 269.768 163.85 269.83V269.83Z" fill="#2B303F"/>
<path id="Vector_65" d="M160.31 267.79L162.81 269.23C163.01 269.35 162.99 269.55 162.75 269.69L160.36 271.07C160.237 271.132 160.102 271.164 159.965 271.164C159.828 271.164 159.693 271.132 159.57 271.07L157.07 269.63C156.86 269.51 156.89 269.3 157.12 269.17L159.51 267.79C159.634 267.726 159.771 267.693 159.91 267.693C160.049 267.693 160.186 267.726 160.31 267.79V267.79Z" fill="#2B303F"/>
<path id="Vector_66" d="M156.77 265.74L159.27 267.19C159.48 267.31 159.45 267.51 159.21 267.65L156.83 269C156.705 269.061 156.569 269.093 156.43 269.093C156.291 269.093 156.155 269.061 156.03 269L153.53 267.55C153.32 267.44 153.35 267.23 153.58 267.09L155.97 265.72C156.095 265.66 156.233 265.63 156.372 265.634C156.511 265.637 156.648 265.674 156.77 265.74Z" fill="#2B303F"/>
<path id="Vector_67" d="M153.23 263.7L155.73 265.14C155.94 265.26 155.91 265.47 155.67 265.6L153.29 267C153.165 267.061 153.029 267.093 152.89 267.093C152.751 267.093 152.615 267.061 152.49 267L149.99 265.55C149.78 265.43 149.81 265.23 150.05 265.09L152.43 263.71C152.554 263.647 152.69 263.614 152.829 263.612C152.967 263.611 153.105 263.641 153.23 263.7V263.7Z" fill="#2B303F"/>
<path id="Vector_68" d="M195.69 288.22L200.87 291.22C201.07 291.34 201.05 291.55 200.81 291.68L198.42 293C198.297 293.061 198.162 293.092 198.025 293.092C197.888 293.092 197.753 293.061 197.63 293L192.45 290C192.25 289.88 192.27 289.67 192.51 289.54L194.9 288.16C195.027 288.105 195.165 288.082 195.302 288.092C195.44 288.103 195.573 288.147 195.69 288.22V288.22Z" fill="#2B303F"/>
<path id="Vector_69" d="M197.35 285.2L199.85 286.65C200.05 286.77 200.03 286.97 199.79 287.11L197.4 288.49C197.277 288.552 197.142 288.584 197.005 288.584C196.868 288.584 196.733 288.552 196.61 288.49L194.1 287.05C193.9 286.93 193.93 286.72 194.16 286.59L196.55 285.21C196.674 285.147 196.81 285.114 196.949 285.112C197.087 285.111 197.225 285.141 197.35 285.2V285.2Z" fill="#2B303F"/>
<path id="Vector_70" d="M193.81 283.16L196.31 284.61C196.51 284.72 196.49 284.93 196.25 285.07L193.86 286.45C193.737 286.512 193.602 286.544 193.465 286.544C193.328 286.544 193.193 286.512 193.07 286.45L190.57 285C190.36 284.89 190.39 284.68 190.62 284.54L193 283.2C193.122 283.129 193.259 283.088 193.4 283.081C193.541 283.074 193.682 283.101 193.81 283.16V283.16Z" fill="#2B303F"/>
<path id="Vector_71" d="M190.27 281.12L192.77 282.56C192.98 282.68 192.95 282.89 192.71 283.02L190.33 284.4C190.205 284.461 190.069 284.493 189.93 284.493C189.791 284.493 189.655 284.461 189.53 284.4L187 283C186.79 282.88 186.82 282.68 187.05 282.54L189.44 281.16C189.565 281.088 189.706 281.047 189.85 281.04C189.995 281.033 190.138 281.06 190.27 281.12V281.12Z" fill="#2B303F"/>
<path id="Vector_72" d="M186.73 279.08L189.23 280.52C189.44 280.64 189.41 280.85 189.23 280.98L186.84 282.36C186.716 282.424 186.579 282.457 186.44 282.457C186.301 282.457 186.164 282.424 186.04 282.36L183.54 280.92C183.34 280.8 183.36 280.59 183.6 280.46L185.98 279.08C186.097 279.024 186.225 278.995 186.355 278.995C186.485 278.995 186.613 279.024 186.73 279.08V279.08Z" fill="#2B303F"/>
<path id="Vector_73" d="M183.19 277L185.7 278.45C185.9 278.57 185.87 278.77 185.64 278.91L183.25 280.29C183.126 280.352 182.989 280.384 182.85 280.384C182.711 280.384 182.574 280.352 182.45 280.29L179.95 278.85C179.75 278.73 179.77 278.52 180.01 278.39L182.4 277.01C182.522 276.948 182.657 276.914 182.794 276.913C182.931 276.911 183.066 276.941 183.19 277V277Z" fill="#2B303F"/>
<path id="Vector_74" d="M179.66 275L182.16 276.45C182.36 276.56 182.34 276.77 182.1 276.91L179.71 278.28C179.588 278.343 179.452 278.376 179.315 278.376C179.178 278.376 179.042 278.343 178.92 278.28L176.41 276.83C176.21 276.71 176.23 276.51 176.47 276.37L178.86 274.99C178.985 274.93 179.122 274.899 179.261 274.901C179.4 274.903 179.536 274.937 179.66 275V275Z" fill="#2B303F"/>
<path id="Vector_75" d="M176.12 273L178.62 274.44C178.82 274.56 178.8 274.77 178.56 274.9L176.17 276.28C176.048 276.344 175.913 276.377 175.775 276.377C175.637 276.377 175.502 276.344 175.38 276.28L172.88 274.84C172.67 274.72 172.7 274.52 172.93 274.38L175.32 273C175.444 272.938 175.581 272.906 175.72 272.906C175.859 272.906 175.996 272.938 176.12 273V273Z" fill="#2B303F"/>
<path id="Vector_76" d="M172.58 270.91L175.08 272.35C175.29 272.47 175.26 272.67 175.02 272.81L172.64 274.19C172.516 274.254 172.379 274.287 172.24 274.287C172.101 274.287 171.964 274.254 171.84 274.19L169.34 272.75C169.13 272.63 169.16 272.42 169.34 272.29L171.73 270.91C171.86 270.837 172.006 270.799 172.155 270.799C172.304 270.799 172.45 270.837 172.58 270.91V270.91Z" fill="#2B303F"/>
<path id="Vector_77" d="M169 268.86L171.5 270.31C171.71 270.43 171.68 270.63 171.5 270.77L169.11 272.15C168.986 272.212 168.849 272.244 168.71 272.244C168.571 272.244 168.434 272.212 168.31 272.15L165.81 270.7C165.6 270.59 165.63 270.38 165.87 270.24L168.25 268.87C168.367 268.815 168.495 268.786 168.624 268.784C168.753 268.782 168.881 268.808 169 268.86V268.86Z" fill="#2B303F"/>
<path id="Vector_78" d="M165.5 266.82L168.01 268.27C168.21 268.38 168.18 268.59 167.95 268.72L165.56 270.1C165.435 270.161 165.299 270.193 165.16 270.193C165.021 270.193 164.885 270.161 164.76 270.1L162.26 268.65C162.06 268.53 162.08 268.33 162.32 268.19L164.71 266.81C164.833 266.75 164.969 266.72 165.106 266.721C165.243 266.723 165.378 266.757 165.5 266.82V266.82Z" fill="#2B303F"/>
<path id="Vector_79" d="M162 264.78L164.51 266.22C164.71 266.34 164.69 266.55 164.45 266.68L162 268.06C161.878 268.124 161.743 268.157 161.605 268.157C161.467 268.157 161.332 268.124 161.21 268.06L158.7 266.62C158.5 266.5 158.52 266.3 158.76 266.16L161.15 264.78C161.279 264.705 161.426 264.666 161.575 264.666C161.724 264.666 161.871 264.705 162 264.78V264.78Z" fill="#2B303F"/>
<path id="Vector_80" d="M154.05 260.21L160.93 264.21C161.13 264.33 161.11 264.53 160.87 264.67L158.48 266C158.357 266.062 158.222 266.094 158.085 266.094C157.948 266.094 157.813 266.062 157.69 266L150.81 262C150.6 261.88 150.63 261.67 150.86 261.54L153.25 260.16C153.378 260.104 153.517 260.079 153.656 260.087C153.795 260.096 153.93 260.138 154.05 260.21V260.21Z" fill="#2B303F"/>
<path id="Vector_81" d="M200.88 287.25L204.3 289.25C204.5 289.37 204.47 289.57 204.24 289.71L201.85 291.09C201.726 291.152 201.589 291.184 201.45 291.184C201.311 291.184 201.174 291.152 201.05 291.09L197.64 289.09C197.44 288.97 197.46 288.77 197.7 288.63L200.09 287.25C200.212 287.186 200.347 287.153 200.485 287.153C200.623 287.153 200.758 287.186 200.88 287.25V287.25Z" fill="#2B303F"/>
<path id="Vector_82" d="M140.19 268.21L190.44 297.21C190.64 297.33 190.62 297.53 190.38 297.67L189.19 298.36C189.066 298.422 188.929 298.454 188.79 298.454C188.651 298.454 188.514 298.422 188.39 298.36L138.14 269.36C137.94 269.24 137.97 269.03 138.2 268.9L139.39 268.21C139.514 268.146 139.651 268.113 139.79 268.113C139.929 268.113 140.066 268.146 140.19 268.21V268.21Z" fill="#2B303F"/>
<path id="&#60;&#208;&#154;&#208;&#190;&#208;&#189;&#209;&#130;&#209;&#131;&#209;&#128;&#62;_7" d="M198.99 269.5L198.66 269.69L189.98 274.7L174.54 265.79L174.22 265.61L183.23 260.41L198.99 269.5Z" fill="#BFBFBF"/>
<path id="&#60;&#208;&#154;&#208;&#190;&#208;&#189;&#209;&#130;&#209;&#131;&#209;&#128;&#62;_8" d="M198.66 269.69L189.98 274.7L174.54 265.79L183.23 260.78L198.66 269.69Z" fill="#E5E5E5"/>
<path id="&#60;&#208;&#154;&#208;&#190;&#208;&#189;&#209;&#130;&#209;&#131;&#209;&#128;&#62;_9" d="M223.75 281.2V282C223.75 282.557 223.605 283.103 223.327 283.586C223.05 284.069 222.651 284.47 222.17 284.75L191.56 302.42C191.08 302.697 190.535 302.842 189.98 302.84C189.426 302.839 188.881 302.694 188.4 302.42L133.02 270.42C132.539 270.14 132.14 269.739 131.863 269.256C131.585 268.773 131.44 268.227 131.44 267.67V266.9L190 300.7L223.75 281.2Z" fill="#E5E5E5"/>
<path id="Vector_83" d="M192.47 224.81L182.2 219C182.2 219 172.77 228 172.77 228.36C168.976 232.67 165.472 237.227 162.28 242C160.99 243.83 159.6 244.93 156.75 248.17C153.9 251.41 151.35 255.75 150.58 259.12C149.81 262.49 150.07 263.76 150.69 264.12C151.47 264.59 152.23 264.01 152.76 262.5C153.434 259.999 154.53 257.632 156 255.5C156 255.5 154.68 258.78 154.06 260.79C153.508 262.554 153.196 264.383 153.13 266.23C153.13 267.98 155.28 269.23 155.85 267.73C156.42 266.23 156.46 264.93 157.42 261.96C157.927 260.36 158.615 258.824 159.47 257.38C158.946 259.368 158.582 261.394 158.38 263.44C158.17 266.25 158.68 267.38 159.05 268.1C159.42 268.82 160.96 269.1 161.42 267.19C161.83 265.44 161.6 263.14 162.91 259.86C163.91 257.47 164.91 255.86 165.09 256.29C165.27 256.72 164.66 258.08 164.87 260.19C165.08 262.3 166.52 263.94 167.7 263.61C168.88 263.28 168.64 263.32 168.78 261.18C168.92 259.04 169.72 257.11 169.66 254.1C169.461 252.007 169.774 249.896 170.57 247.95C171.46 245.67 175.79 240.59 180.67 235.75L192.47 224.81Z" fill="#FFCEA9"/>
<path id="&#60;&#208;&#154;&#208;&#190;&#208;&#189;&#209;&#130;&#209;&#131;&#209;&#128;&#62;_10" d="M189.09 301.17C188.567 301.372 188.006 301.455 187.447 301.412C186.888 301.369 186.345 301.2 185.86 300.92L130.72 269.09C130.243 268.814 129.832 268.436 129.517 267.983C129.203 267.53 128.992 267.014 128.9 266.47L122.9 230.47C122.885 230.267 122.885 230.063 122.9 229.86C122.9 229.364 122.998 228.872 123.188 228.414C123.379 227.956 123.658 227.54 124.01 227.19L181.31 260.27C181.668 260.483 181.973 260.773 182.205 261.119C182.437 261.465 182.589 261.858 182.65 262.27L189.09 301.17Z" fill="#F4F4F4"/>
<path id="&#60;&#208;&#154;&#208;&#190;&#208;&#189;&#209;&#130;&#209;&#131;&#209;&#128;&#62;_11" d="M190 300.7L189.62 300.92C189.456 301.015 189.286 301.099 189.11 301.17L182.58 262.22C182.519 261.808 182.367 261.415 182.135 261.069C181.903 260.723 181.598 260.433 181.24 260.22L123.94 227.14C124.171 226.915 124.43 226.72 124.71 226.56L182.12 259.7C182.472 259.905 182.774 260.186 183.006 260.521C183.237 260.856 183.392 261.238 183.46 261.64L190 300.7Z" fill="#E5E5E5"/>
</g>
</g>
<path id="Vector_84" d="M199.17 204C199.17 204 194.85 203.78 193.07 201.26C193.4 196.96 198.91 180.61 209.99 179.39C206.974 181.507 204.581 184.394 203.06 187.75C201.05 192.64 199.17 204 199.17 204Z" fill="#EDEDED"/>
</g>
<path id="Vector_85" opacity="0.4" d="M73.5 253.01C77.2997 253.01 80.38 251.233 80.38 249.04C80.38 246.847 77.2997 245.07 73.5 245.07C69.7003 245.07 66.62 246.847 66.62 249.04C66.62 251.233 69.7003 253.01 73.5 253.01Z" fill="#D6D8E5"/>
<path id="Vector_86" d="M74.48 252.27C78.2797 252.27 81.36 250.493 81.36 248.3C81.36 246.107 78.2797 244.33 74.48 244.33C70.6803 244.33 67.6 246.107 67.6 248.3C67.6 250.493 70.6803 252.27 74.48 252.27Z" fill="#D6D8E5"/>
<path id="Vector_87" d="M65.27 234.72L67.68 248.58H81.34L83.69 234.82L65.27 234.72Z" fill="#D6D8E5"/>
<path id="Vector_88" d="M74.48 239.87C79.5721 239.87 83.7 237.488 83.7 234.55C83.7 231.612 79.5721 229.23 74.48 229.23C69.3879 229.23 65.26 231.612 65.26 234.55C65.26 237.488 69.3879 239.87 74.48 239.87Z" fill="#E4E6EF"/>
<path id="Vector_89" d="M74.48 238.7C72.4164 238.746 70.3752 238.264 68.55 237.3C67.21 236.52 66.44 235.52 66.44 234.55C66.44 233.58 67.21 232.55 68.55 231.8C70.3912 230.879 72.4215 230.4 74.48 230.4C76.5385 230.4 78.5688 230.879 80.41 231.8C81.76 232.58 82.53 233.58 82.53 234.55C82.53 235.52 81.76 236.55 80.41 237.3C78.5853 238.265 76.5438 238.747 74.48 238.7V238.7Z" fill="#28221C"/>
<path id="Vector_90" d="M78.45 230.36C78.5811 228.568 78.2964 226.771 77.6181 225.107C76.9399 223.444 75.8864 221.959 74.54 220.77V220.77C73.1935 221.959 72.1401 223.444 71.4618 225.107C70.7836 226.771 70.4989 228.568 70.63 230.36L65.36 229.86C67.59 238.24 74.58 237.52 74.58 237.52C75.1 237.52 81.58 237.9 83.75 229.86L78.45 230.36Z" fill="#99B524"/>
<path id="Vector_91" d="M74.54 237.54C74.54 237.54 74.07 231.01 65.3 226.62C65.3 226.62 63.23 237.46 74.54 237.54Z" fill="#A6CE28"/>
<path id="Vector_92" d="M74.48 237.54C74.48 237.54 75 231 83.72 226.62C83.72 226.62 85.79 237.46 74.48 237.54Z" fill="#A6CE28"/>
<path id="Vector_93" opacity="0.4" d="M256.83 344.96C261.79 344.96 265.81 342.641 265.81 339.78C265.81 336.919 261.79 334.6 256.83 334.6C251.87 334.6 247.85 336.919 247.85 339.78C247.85 342.641 251.87 344.96 256.83 344.96Z" fill="#D6D8E5"/>
<path id="Vector_94" d="M266.69 339V325.21L248.77 325.66V338.41C248.43 339.95 249.28 341.55 251.32 342.73C253.289 343.726 255.464 344.244 257.67 344.244C259.876 344.244 262.051 343.726 264.02 342.73C265.83 341.71 266.7 340.38 266.69 339Z" fill="#D6D8E5"/>
<path id="Vector_95" d="M257.71 330.39C262.669 330.39 266.69 328.071 266.69 325.21C266.69 322.349 262.669 320.03 257.71 320.03C252.75 320.03 248.73 322.349 248.73 325.21C248.73 328.071 252.75 330.39 257.71 330.39Z" fill="#E4E6EF"/>
<path id="Vector_96" d="M265.27 325.21C265.27 326.06 264.57 326.94 263.35 327.65C261.787 328.471 260.055 328.919 258.29 328.96H257.71C255.748 328.996 253.809 328.538 252.07 327.63C250.85 326.92 250.15 326.04 250.15 325.19C250.15 324.34 250.85 323.46 252.07 322.76C253.807 321.847 255.748 321.389 257.71 321.43H258.29C260.057 321.469 261.789 321.921 263.35 322.75C264.57 323.48 265.27 324.37 265.27 325.21Z" fill="#28221C"/>
<path id="Vector_97" opacity="0.07" d="M265.27 325.21C265.27 326.06 264.57 326.94 263.35 327.65C261.8 328.509 260.057 328.96 258.285 328.96C256.513 328.96 254.77 328.509 253.22 327.65C252 326.94 251.3 326.06 251.3 325.21C251.3 324.36 252 323.48 253.22 322.78C254.768 321.915 256.512 321.46 258.285 321.46C260.058 321.46 261.802 321.915 263.35 322.78C264.57 323.48 265.27 324.37 265.27 325.21Z" fill="white"/>
<path id="Vector_98" d="M265.38 331.62L263.47 330.51L262.55 331.05L263.47 331.59V331.94L265.26 332.94L265.21 333.27C265.649 333.884 266.043 334.529 266.39 335.2L266.46 335.14V339.59C266.46 340.76 265.77 340.36 265.46 340.19L263.46 339.04L262.54 339.57L263.46 340.11V340.46L265.46 341.62C265.665 341.741 265.883 341.838 266.11 341.91L265.99 342.47L266.99 341.88C267.214 341.69 267.387 341.446 267.494 341.172C267.6 340.898 267.637 340.602 267.6 340.31V335.66C267.554 334.864 267.331 334.088 266.947 333.389C266.562 332.69 266.027 332.086 265.38 331.62Z" fill="#B0B4C1"/>
<path id="Vector_99" d="M264.55 342.19L262.55 341.03V339.6L264.55 340.76C264.85 340.93 265.55 341.33 265.55 340.16V335.51C265.515 335.112 265.393 334.727 265.192 334.381C264.992 334.036 264.718 333.738 264.39 333.51L262.57 332.51V331.08L264.47 332.18C265.136 332.642 265.689 333.247 266.089 333.952C266.489 334.656 266.725 335.442 266.78 336.25V340.9C266.76 342.13 266.18 343.13 264.55 342.19Z" fill="#BFC2D1"/>
<g id="youtube">
<path id="yt-2" d="M63.08 103.44C61.51 99.32 59.81 97.75 56.34 95.52C52.87 93.29 44.18 88.12 36.65 83.77C29.12 79.42 20.39 74.49 16.94 72.77C14.55 71.54 13 71 11.75 71.54L11.53 71.66L11.4 71.73L4.16998 75.61L8.35998 78.74C7.89204 82.4743 7.68821 86.237 7.74998 90V90C7.74998 99.71 8.57998 105.76 10.2 109.88C11.82 114 13.48 115.58 16.93 117.88C20.38 120.18 29.1 125.28 36.65 129.63C42.23 132.86 48.46 136.38 52.71 138.7L53.59 146.09L61.76 141.75C62.302 141.435 62.7586 140.992 63.09 140.46C64.72 138.22 65.54 133.12 65.54 123.46C65.53 113.61 64.71 107.6 63.08 103.44Z" fill="#DB302C"/>
<path id="yt-1" d="M55.32 107.61C53.76 103.48 52.06 101.91 48.59 99.68C45.12 97.45 36.43 92.28 28.9 87.93C21.37 83.58 12.64 78.66 9.19 76.93C5.74 75.2 4 74.77 2.44 77.08C0.88 79.39 0 84.42 0 94.17C0 103.88 0.83 109.93 2.44 114.05C4.05 118.17 5.73 119.75 9.18 122.05C12.63 124.35 21.35 129.45 28.9 133.81C36.45 138.17 45.13 143.04 48.6 144.81C52.07 146.58 53.76 146.94 55.33 144.62C56.9 142.3 57.78 137.28 57.78 127.57C57.78 117.78 57 111.76 55.32 107.61Z" fill="#F44336"/>
<path id="Vector_100" d="M21.67 119.2V94.18L39.72 117.11L21.67 119.2Z" fill="#FAFAFA"/>
</g>
<g id="twitter">
<path id="twt-2" d="M204.26 52.65C204.26 34.65 191.64 12.83 176.08 3.84C168.43 -0.57 161.5 -1 156.42 1.73L156.25 1.83L156.06 1.94L150.34 5.27L151.76 5.92C149.31 9.33 147.9 14.13 147.9 20.12C147.9 38.12 160.52 59.94 176.08 68.92C180.8 71.65 185.25 72.92 189.16 72.76L189 74.93L196 70.93H196.07L196.17 70.87C201.16 67.83 204.26 61.55 204.26 52.65Z" fill="#499BCE"/>
<path id="twt-1" d="M189.63 74.5914C200.635 68.2374 200.636 47.6353 189.632 28.5753C178.627 9.51534 160.785 -0.784849 149.78 5.56919C138.774 11.9232 138.773 32.5253 149.777 51.5853C160.782 70.6453 178.624 80.9454 189.63 74.5914Z" fill="#55ACEE"/>
<path id="Vector_101" d="M185.8 39.15C184.462 39.0447 183.152 38.7063 181.93 38.15C182.633 38.0721 183.296 37.7829 183.832 37.3205C184.367 36.8582 184.75 36.2444 184.93 35.56C183.48 35.6847 182.021 35.4831 180.66 34.97C179.514 32.8047 177.817 30.98 175.74 29.68C172 27.52 169 29.26 169 33.56C169.001 34.1876 169.061 34.8137 169.18 35.43C163.58 31.88 158.62 25.91 155.3 19.29C154.654 20.2953 154.336 21.4763 154.39 22.67C154.524 25.6496 155.572 28.5158 157.39 30.88C156.231 30.1392 155.2 29.2136 154.34 28.14V28.24C154.448 30.3042 154.978 32.3243 155.899 34.1751C156.819 36.026 158.109 37.6682 159.69 39C159.067 38.8357 158.471 38.5832 157.92 38.25C157.474 37.9947 157.049 37.7037 156.65 37.38C157.555 41.0577 159.797 44.2665 162.94 46.38C160.64 47.13 157.73 46.7 154.58 44.87C154.04 44.56 153.5 44.21 152.97 43.87C155.757 47.67 159.267 50.8816 163.3 53.32C175.68 60.48 182.46 52.54 182.46 42.26C182.46 41.92 182.46 41.58 182.46 41.26C183.77 40.934 184.944 40.2068 185.82 39.18L185.8 39.15Z" fill="#F1F2F2"/>
</g>
<g id="facebook">
<path id="facebook-bg2" d="M369.26 86.43L328.7 63C328 62.5092 327.196 62.1885 326.35 62.0635C325.505 61.9385 324.642 62.0127 323.83 62.28V62.28H323.77C323.537 62.3832 323.316 62.5106 323.11 62.66L316.63 66.37L321.22 72.74V114.11C321.355 116.713 322.103 119.247 323.403 121.506C324.703 123.765 326.518 125.685 328.7 127.11L348.7 138.66V115.77L343.54 112.77C343.187 112.538 342.893 112.226 342.683 111.86C342.473 111.493 342.352 111.082 342.33 110.66V103.27C342.33 102.49 342.88 102.17 343.55 102.56L348.69 105.56V98.44C348.69 90.16 353.07 88.18 359.47 91.87L364.72 94.87C365.078 95.1028 365.375 95.4174 365.587 95.7877C365.799 96.1581 365.92 96.5736 365.94 97V103.22C365.94 104 365.4 104.31 364.73 103.92L361.51 102.07C358.03 100.07 357.36 101.58 357.36 104.38V110.55L365 115C365.377 115.243 365.686 115.578 365.898 115.973C366.109 116.369 366.217 116.812 366.21 117.26L365.45 124.26C365.38 124.93 364.86 125.16 364.24 124.8L357.39 120.8V143.68L365.73 148.5L367.2 155.3L374.53 151.1L374.61 151.05H374.67C375.97 150.24 376.78 148.6 376.78 146.26V99.39C376.634 96.7905 375.877 94.2621 374.571 92.0102C373.264 89.7583 371.445 87.8465 369.26 86.43V86.43Z" fill="#384B7A"/>
<path id="Vector_102" d="M336.93 139.86L360.8 153.65L364.73 107.06L357.62 95.39L334.68 81.82L329.81 91.55C329.81 91.55 330.19 113.06 330.81 117.55C331.43 122.04 336.93 139.86 336.93 139.86Z" fill="white"/>
<path id="facebook-bg1" d="M362.34 90.43L321.78 67C317.65 64.61 314.3 66.55 314.3 71.32V118.14C314.435 120.743 315.183 123.277 316.483 125.536C317.783 127.795 319.598 129.715 321.78 131.14L341.78 142.69V119.8L336.63 116.8C336.275 116.569 335.98 116.257 335.768 115.89C335.556 115.524 335.434 115.113 335.41 114.69V107.3C335.41 106.52 335.96 106.2 336.63 106.59L341.78 109.59V102.46C341.78 94.18 346.15 92.2 352.55 95.89L357.8 98.89C358.151 99.1236 358.442 99.4361 358.65 99.8025C358.859 100.169 358.979 100.579 359 101V107.22C359 108 358.45 108.31 357.78 107.92L354.56 106.07C351.08 104.07 350.41 105.58 350.41 108.38V114.55L358.05 118.97C358.427 119.213 358.736 119.548 358.948 119.943C359.159 120.339 359.267 120.782 359.26 121.23L358.5 128.23C358.43 128.89 357.91 129.13 357.29 128.77L350.44 124.82V147.7L362.34 154.57C366.47 156.96 369.82 155.02 369.82 150.25V103.39C369.679 100.794 368.928 98.268 367.628 96.0163C366.329 93.7647 364.517 91.8509 362.34 90.43Z" fill="#475993"/>
</g>
<g id="instagram">
<path id="insta-5" d="M437.56 293C437.56 272.28 423.01 247.09 405.07 236.72C396.33 231.72 388.41 231.09 382.57 234.2L382.39 234.31C382.047 234.493 381.713 234.693 381.39 234.91L374.63 238.91L376.51 239.8C373.99 243.68 372.56 248.96 372.56 255.45C372.56 276.17 387.11 301.37 405.06 311.73C409.231 314.313 413.974 315.831 418.87 316.15L419.22 318.88L427.47 314.32C433.69 311.06 437.56 303.66 437.56 293Z" fill="#A93BFF"/>
<path id="Vector_103" d="M416.756 311.715C427.46 305.535 427.461 285.496 416.758 266.958C406.055 248.419 388.7 238.4 377.996 244.58C367.292 250.761 367.291 270.799 377.995 289.338C388.698 307.876 406.052 317.895 416.756 311.715Z" fill="white"/>
<path id="insta-4" d="M397.65 286C401.23 288.07 404.14 286.39 404.14 282.26C404.092 280.5 403.676 278.77 402.92 277.18C401.812 274.653 399.982 272.51 397.66 271.02C395.49 269.77 393.58 269.9 392.39 271.11C391.525 272.126 391.088 273.438 391.17 274.77C391.291 277.019 391.941 279.209 393.067 281.16C394.193 283.111 395.763 284.769 397.65 286Z" fill="#A93BFF"/>
<path id="insta-3" d="M411.82 277.54V271.26V270.32L411.01 269.86L405.57 266.74L405.59 273.97L411.82 277.54Z" fill="#A93BFF"/>
<path id="insta-2" d="M397.65 241.1C379.78 230.78 365.24 239.18 365.24 259.81C365.24 280.44 379.78 305.63 397.65 315.95C415.52 326.27 430.06 317.87 430.06 297.24C430.06 276.61 415.53 251.42 397.65 241.1ZM416.09 284.8V302.22C416.09 306.76 412.89 308.61 408.96 306.34L386.35 293.28C384.276 291.927 382.55 290.105 381.311 287.961C380.073 285.818 379.356 283.412 379.22 280.94V254.83C379.22 250.29 382.42 248.44 386.35 250.71L409 263.77C411.074 265.123 412.8 266.945 414.039 269.089C415.277 271.232 415.994 273.638 416.13 276.11L416.09 284.8Z" fill="#A93BFF"/>
<path id="insta-1" d="M407.74 284.34C407.74 290.76 403.21 293.34 397.65 290.17C392.09 287 387.57 279.12 387.57 272.7C387.544 271.35 387.796 270.009 388.31 268.76L382.81 265.59V283C382.876 284.226 383.23 285.419 383.843 286.482C384.457 287.545 385.312 288.449 386.34 289.12L409 302.19C411 303.31 412.53 302.4 412.53 300.19V282.72L407.03 279.55C407.494 281.105 407.733 282.718 407.74 284.34V284.34Z" fill="#A93BFF"/>
</g>
</g>
</g>
</g>
<defs>
<clipPath id="clip0">
<rect width="437.56" height="500" fill="white"/>
</clipPath>
</defs>
</svg>
